<?xml version="1.0" encoding="UTF-8"?>
<svg id="Camada_9" data-name="Camada 9" xmlns="http://www.w3.org/2000/svg" viewBox="0 0 1080 1350">
  <defs>
    <style>
      .cls-1 {
        fill: #fff;
      }

      .cls-2 {
        fill: #006837;
      }
    </style>
  </defs>
  <g id="LIMAO">
    <path class="cls-2" d="M719.87,710.92c43.57-25.07,86.26-58.55,132.43-78.55,39.69-17.19,62.95-23.97,80.77,22.05,34.79,89.86.15,224.26-63.48,294.67-96.03,106.27-253.63,84.49-360.7,7.77-117.03,28.41-269.9-2.35-338.92-108.43-71.58-110.02-46.68-279.75,35.93-377.42,68.65-81.18,134.71-112.16,243.4-103.27,166.61,13.62,294.4,178.41,270.58,343.19ZM683.09,731.92c1.05,1.09,25.14-13.18,26.36-14.78,3.07-4.04,4.9-26.72,5.23-33.3,9.96-201.39-188.46-357.82-382.71-296.91-165.62,51.93-201.73,283.11-110.13,414.88,55.69,80.12,149.31,118.84,245.86,115.71l-24.53-49.02c-19.86,11.28-34.76,16.09-57.68,9.55-36.05-10.29-79.68-40.87-49.11-82.22,14.96-20.23,52.2-53.81,71.74-73.6,12.71-12.88,25.53-25.96,39.33-37.72,7.85-3.81,15.99,0,17.58,8.61l-7.81,131.6,28.11-6.32c-1.56-29.71-3.45-59.4-5.38-89.09-.62-9.57-5.55-35.23-2.19-42.5,2.13-4.61,8.09-6.81,12.77-4.95l96.31,100.03c6,2.7,15.86-7.55,22.7-7.97,1.57-2.07-3.83-6.58-5.23-7.88-33.65-31.16-67.98-61.56-101.58-92.78-14.28-25.59,21.86-20.6,37.73-20.22,4.99.12,9.3,1.83,13.85,1.91,27.48.45,76.08-3.84,100.81,2.5,30.07,7.71,40.29,48.49,27.97,74.46ZM192.76,504.29c-81.42,120.12-84.41,312.05,44.28,401.38,55.79,38.72,137.73,57.28,205.24,53.88,8.77-.44,51.49-4.78,56.96-7.83,3.44-1.92.22-2.8-1.19-4.12-8.14-7.6-16.46-15.07-24.59-22.69-220.96,11.7-360.97-184.97-291.26-393.54,3.04-9.11,8.1-17.74,10.55-27.08ZM683.08,742.44c-7.46,4.33-18.73,7.31-24.51,13.99,6.99-1.04,11.25,1.38,14.34,7.56,15.01,36.79,43.06,74.58,57.19,110.91,18.2,46.78-18.97,66.19-60.22,67.19-29.03.7-49.49-24.72-45.89-52.99,4.24-33.21,18.27-91.8,27.68-124.66.79-2.76,2.31-3.93,3.39-6.23l-25.8,12.71c-15.76,37.96-24.24,81.28-45.93,116.04-27.93,30.68-85.42-8.23-87.51-40.59-.53-8.24,2.86-15.78,5.14-23.38-19.23,6.61-41.27,6.07-60.4,10.54-2.06.48-3.25-1.3-2.44,2.38,2.18,9.86,14.34,28.63,20.44,37.37,31.48,45.06,78.28,70.51,131.39,82.24,162.64,35.92,315.7-46.17,333.02-219.22,2.42-24.19,2.74-76.38-6.89-98.15-10.31-23.33-52.79-4.17-68.36,5.36,20.89,10.83,26.96,35.68,28.04,57.71,1.69,34.27-22.73,50.89-55,48.02-36.04-3.21-75.73-17.3-112.32-20.98-9.29.15-17.82,9.81-25.35,14.18,2.34-.82,7.86.23,10.57.79,30.31,6.3,80.6,25,111.19,35.92,26.28,9.38,43.57,21.64,39.18,53.32-1.78,12.84-25.33,43-37.18,48.62-21.84,10.35-42.25,4.48-56.92-13.75-25.88-32.15-45.38-76.31-70.72-109.62-3.8-3.72.66-14.15,3.88-15.28ZM712.85,724.91l114.74,21.02c16.38,2.65,39.5-13.06,42.45-29.29,4-21.98-2.95-67.36-31.15-69.81l-126.04,78.08ZM506.49,658.64c-1.67,3.6-3.35,7.9-.37,11.21,32.09,27.21,61.05,58.32,92.89,85.74,5.29,4.56,14.45,14.03,21.03,12.38,5-1.25,48.57-25.46,53.16-29.29,4.34-3.61,9.24-19.14,9.89-25.13,3.46-31.79-16.25-53.96-48.09-53.49l-128.51-1.42ZM462.46,891.28c11.26,26.21,34.21,48.11,57.22,64.47,64.62,45.95,162.54,72.03,240.47,52,139.18-35.77,200.54-207.27,171.56-337.09-3.04,0-1.92,7.66-1.82,9.7,5.4,102.8-26.29,196.43-117.37,251.93-101.33,61.74-268.96,50.88-350.06-41.01ZM583.26,786.19l-91.83-98.13-8.1-.91-1.7,5.29,8.84,125.29,92.79-31.53ZM451.93,824.73l6.75-133.68c-4.52-13.82-27.72,17.29-31.17,20.78-24.85,25.09-64.72,58.45-85.05,84.85-23.19,30.13-4.24,56.2,25.46,69.18,24.59,10.75,48.53,16.3,70.98-2.54l-11.3-34.07c.94-3.93,19.69-3.41,24.33-4.53ZM685.98,747.89c-4.23,1.39-3.29,6.89-1.53,9.82,24.38,32.08,42.91,72.86,67.23,104.38,13.75,17.82,35.85,26.2,56.33,13.15,7.15-4.55,24.86-26.81,28.39-34.65,9.84-21.86.34-43.29-21.04-52.68-29.04-12.76-76.78-26.54-108.16-35.43-4.95-1.4-17.22-5.91-21.21-4.59ZM657.24,762.15l-28,125.2c-5.7,48.17,34.78,56.38,73.13,45.11,20.94-6.15,32.75-28.02,26.13-48.96l-61.39-120.72c-1.34-3.98-7.87-3.02-9.88-.63ZM623.53,773.96c-36.61,19.38-75.1,35-114.75,47.2-11.6,11.64-9.97,31.99-.79,44.72,4.85,6.74,27.16,24.73,34.92,26.37,18.79,3.98,35.01-1.77,44.74-18.49l35.89-99.8Z"/>
    <path class="cls-1" d="M683.09,731.92c12.31-25.98,2.1-66.76-27.97-74.46-24.73-6.34-73.33-2.05-100.81-2.5-4.56-.07-8.87-1.79-13.85-1.91-15.87-.37-52.01-5.37-37.73,20.22,33.6,31.22,67.93,61.62,101.58,92.78,1.4,1.3,6.8,5.81,5.23,7.88-6.83.41-16.7,10.66-22.7,7.97l-96.31-100.03c-4.68-1.86-10.64.34-12.77,4.95-3.36,7.28,1.56,32.94,2.19,42.5,1.93,29.69,3.82,59.38,5.38,89.09l-28.11,6.32,7.81-131.6c-1.59-8.61-9.73-12.42-17.58-8.61-13.8,11.77-26.61,24.85-39.33,37.72-19.53,19.78-56.78,53.37-71.74,73.6-30.57,41.34,13.05,71.92,49.11,82.22,22.92,6.54,37.82,1.73,57.68-9.55l24.53,49.02c-96.56,3.12-190.17-35.6-245.86-115.71-91.6-131.77-55.49-362.95,110.13-414.88,194.25-60.91,392.67,95.52,382.71,296.91-.33,6.58-2.16,29.26-5.23,33.3-1.21,1.6-25.31,15.86-26.36,14.78ZM434.93,614.09c10.08,5.22,19.34,3.09,20.44-9.33.45-5.11-1.72-9-1.75-13.71-.29-40.94,2.82-93.01-2.17-132.66-3.28-26-28.14-44.62-54.22-41.18-46.78,6.16-88.01,43.15-53.82,89.68l91.52,107.21ZM500.51,431.16c-11.47,1.92-25.3,13.66-30.25,24.03-9.03,18.92-2.98,50.19-2.49,70.91.67,28.61.68,57.23,1.72,85.83,4.94,10.93,12.57,11.73,21.06,3.63,17.94-17.11,44.69-54.45,61.16-75.43,18.03-22.95,41.79-43.09,28.1-75.29-10.49-24.68-54.86-37.78-79.29-33.69ZM344.45,543.53c-21.26-19.6-38.98-42.69-71.8-28.53-18.97,8.19-31.28,35.44-36.62,54.43-8.45,30.07,8.15,62.71,40.11,67.76,38.98,6.16,94.37,7.75,134.62,8.96,2.98.09,5.94,1.72,8.86,1.81,13.05.38,16.91-12.05,9.53-21.45-29.49-26.23-55.74-56.26-84.71-82.96ZM614.33,515.22c-7.06,1.2-16.12,7.04-21.46,11.8-27.29,33.48-60.42,62.83-87.54,96.32-8.13,10.04-14.66,22.37,3.19,25.66l134.73-17.32c29.53-7.96,43.33-36.86,33.15-65.53s-27.47-56.81-62.06-50.93ZM465.51,625.54c-31.15,1.69-29.76,50.53,3,48.67,31.98-1.81,27.35-50.32-3-48.67ZM384.38,716.9c16.28-14.33,33.13-28.1,49.13-42.79,1.94-5.57,2.12-14.33-3.35-17.58-6.08-3.62-31.23-1.21-40.45-1.57-33.09-1.3-87.11-6.37-118.58-1.4-28.55,4.51-41.16,37.15-37.62,63.04,5.08,37.08,29.86,82.19,74.32,64.72,15.77-6.2,60.8-50.54,76.55-64.41Z"/>
    <path class="cls-1" d="M683.08,742.44c7.53-4.37,16.06-14.03,25.35-14.18,36.6,3.67,76.28,17.77,112.32,20.98,32.27,2.87,56.69-13.74,55-48.02-1.09-22.03-7.16-46.88-28.04-57.71,15.57-9.53,58.05-28.69,68.36-5.36,9.63,21.78,9.31,73.96,6.89,98.15-17.32,173.05-170.37,255.14-333.02,219.22-53.11-11.73-99.92-37.17-131.39-82.24-6.1-8.74-18.27-27.51-20.44-37.37-.81-3.68.38-1.9,2.44-2.38,19.13-4.47,41.18-3.94,60.4-10.54-2.28,7.6-5.67,15.14-5.14,23.38,2.09,32.36,59.58,71.27,87.51,40.59,21.69-34.76,30.17-78.08,45.93-116.04l25.8-12.71c-1.08,2.3-2.6,3.47-3.39,6.23-9.41,32.86-23.44,91.44-27.68,124.66-3.6,28.27,16.86,53.69,45.89,52.99,41.25-1,78.42-20.41,60.22-67.19-14.14-36.33-42.18-74.12-57.19-110.91-3.09-6.18-7.35-8.6-14.34-7.56,5.79-6.68,17.05-9.66,24.51-13.99-3.23,1.13-7.68,11.55-3.88,15.28,25.35,33.32,44.85,77.47,70.72,109.62,14.67,18.23,35.08,24.1,56.92,13.75,11.85-5.62,35.41-35.78,37.18-48.62,4.38-31.68-12.9-43.94-39.18-53.32-30.59-10.91-80.88-29.62-111.19-35.92-2.72-.56-8.24-1.61-10.57-.79Z"/>
    <path class="cls-1" d="M192.76,504.29c-2.45,9.34-7.51,17.97-10.55,27.08-69.71,208.56,70.3,405.23,291.26,393.54,8.12,7.63,16.45,15.1,24.59,22.69,1.42,1.32,4.64,2.19,1.19,4.12-5.47,3.06-48.18,7.39-56.96,7.83-67.51,3.4-149.46-15.16-205.24-53.88-128.7-89.33-125.7-281.26-44.28-401.38Z"/>
    <path class="cls-1" d="M462.46,891.28c81.1,91.89,248.72,102.76,350.06,41.01,91.09-55.5,122.77-149.13,117.37-251.93-.11-2.05-1.22-9.71,1.82-9.7,28.97,129.83-32.38,301.33-171.56,337.09-77.93,20.03-175.85-6.06-240.47-52-23.01-16.36-45.95-38.25-57.22-64.47Z"/>
    <path class="cls-1" d="M451.93,824.73c-4.64,1.11-23.39.6-24.33,4.53l11.3,34.07c-22.45,18.84-46.39,13.29-70.98,2.54-29.7-12.98-48.65-39.06-25.46-69.18,20.33-26.41,60.21-59.77,85.05-84.85,3.45-3.49,26.66-34.6,31.17-20.78l-6.75,133.68Z"/>
    <path class="cls-1" d="M506.49,658.64l128.51,1.42c31.84-.47,51.55,21.7,48.09,53.49-.65,5.98-5.55,21.51-9.89,25.13-4.59,3.83-48.16,28.04-53.16,29.29-6.58,1.65-15.74-7.82-21.03-12.38-31.84-27.43-60.79-58.54-92.89-85.74-2.98-3.32-1.3-7.61.37-11.21Z"/>
    <path class="cls-1" d="M657.24,762.15c2.01-2.39,8.54-3.35,9.88.63l61.39,120.72c6.62,20.94-5.19,42.8-26.13,48.96-38.35,11.27-78.83,3.06-73.13-45.11l28-125.2Z"/>
    <path class="cls-1" d="M712.85,724.91l126.04-78.08c28.2,2.45,35.15,47.83,31.15,69.81-2.95,16.23-26.07,31.93-42.45,29.29l-114.74-21.02Z"/>
    <path class="cls-1" d="M623.53,773.96l-35.89,99.8c-9.73,16.72-25.95,22.47-44.74,18.49-7.76-1.64-30.07-19.63-34.92-26.37-9.17-12.73-10.81-33.08.79-44.72,39.65-12.2,78.15-27.82,114.75-47.2Z"/>
    <polygon class="cls-1" points="583.26 786.19 490.47 817.72 481.63 692.44 483.33 687.15 491.43 688.06 583.26 786.19"/>
    <path class="cls-2" d="M384.38,716.9c-15.76,13.87-60.79,58.21-76.55,64.41-44.46,17.47-69.24-27.64-74.32-64.72-3.54-25.89,9.07-58.53,37.62-63.04,31.47-4.97,85.49.1,118.58,1.4,9.23.36,34.38-2.05,40.45,1.57,5.47,3.26,5.29,12.02,3.35,17.58-16,14.69-32.84,28.46-49.13,42.79ZM272.88,658.81c-54.98,8.68-36.08,106.17,3.57,118.16,19.1,5.78,28.47,1.21,43.24-10.07l107.71-93.65c2.52-2.25,2.69-9.06,1.01-11.48-2.21-3.18-51.15-1.34-59.71-1.56-27.96-.72-68.79-5.67-95.81-1.4Z"/>
    <path class="cls-2" d="M344.45,543.53c28.97,26.7,55.23,56.74,84.71,82.96,7.38,9.41,3.52,21.83-9.53,21.45-2.93-.08-5.88-1.72-8.86-1.81-40.26-1.2-95.65-2.8-134.62-8.96-31.96-5.05-48.57-37.69-40.11-67.76,5.34-18.99,17.66-46.25,36.62-54.43,32.81-14.16,50.54,8.94,71.8,28.53ZM363.24,570.22c-25.26-24.29-57.96-73.54-96.8-45.68-17.17,12.32-31.94,55.75-25.49,76.04,8.85,27.85,30.59,30.84,56.04,33.27,41.22,3.92,83.04,3.7,124.2,8.63,7.56-.19,8.06-5.17,4.58-11.34-20.3-20.87-41.55-40.76-62.52-60.92Z"/>
    <path class="cls-2" d="M434.93,614.09l-91.52-107.21c-34.19-46.53,7.04-83.52,53.82-89.68,26.08-3.43,50.94,15.18,54.22,41.18,5,39.65,1.88,91.72,2.17,132.66.03,4.71,2.2,8.6,1.75,13.71-1.09,12.43-10.35,14.56-20.44,9.33ZM448.01,610.66c5.25-8.54.52-18.22.36-26.62-.57-30.5-.42-60.72-1.75-91.06-1.19-27.13,4.84-58.43-29.31-68.75-19.57-5.92-61.06,7.28-72.94,24.14-12.98,18.41-9.9,37.67,2.56,55.01,20.74,28.86,59.91,72.61,84.86,99,3.13,3.31,6.51,6.43,9.72,9.67l6.51-1.39Z"/>
    <path class="cls-2" d="M500.51,431.16c24.43-4.09,68.8,9.01,79.29,33.69,13.69,32.2-10.07,52.34-28.1,75.29-16.47,20.97-43.22,58.31-61.16,75.43-8.49,8.1-16.12,7.29-21.06-3.63-1.05-28.6-1.05-57.22-1.72-85.83-.49-20.72-6.54-51.99,2.49-70.91,4.95-10.37,18.78-22.11,30.25-24.03ZM507.59,434.65c-15.93,1.65-33.97,15.65-36.23,32.15-2.95,21.42,1.19,45.01,1.67,66.31.44,19.95.26,37.91,1.66,57.88.45,6.39-2.91,25.49,6.15,25.42,3.61-.57,5.53-3.83,7.82-6.24,22.41-23.54,63.42-73.91,81.32-100.79,13.69-20.54,11.81-45.61-9.59-60.14-9.02-6.12-42.17-15.69-52.8-14.59Z"/>
    <path class="cls-2" d="M614.33,515.22c34.59-5.88,52,22.6,62.06,50.93s-3.62,57.57-33.15,65.53l-134.73,17.32c-17.85-3.29-11.32-15.62-3.19-25.66,27.12-33.5,60.25-62.84,87.54-96.32,5.34-4.76,14.41-10.6,21.46-11.8ZM614.33,520.47c-6.58,1.13-13,5.77-17.97,10.05-21.49,18.5-51.81,56.23-71.78,78.81-4.84,5.47-20.44,21.62-22.83,26.34-1.79,3.55,2.51,9.84,6.82,8.63,48.3-9.5,100.39-8.5,147.08-22.97,18.42-13.45,23.83-32.62,16.02-53.98-9.78-26.75-24.61-52.52-57.34-46.88Z"/>
    <path class="cls-2" d="M465.51,625.54c30.35-1.65,34.98,46.86,3,48.67-32.76,1.85-34.15-46.98-3-48.67ZM465.53,629.02c-27.62,1.6-25.23,43.68,3.02,41.73,27.76-1.92,22.41-43.2-3.02-41.73Z"/>
    <path class="cls-1" d="M272.88,658.81c27.02-4.27,67.85.69,95.81,1.4,8.56.22,57.51-1.62,59.71,1.56,1.67,2.42,1.51,9.23-1.01,11.48l-107.71,93.65c-14.77,11.28-24.13,15.85-43.24,10.07-39.65-12-58.54-109.48-3.57-118.16Z"/>
    <path class="cls-1" d="M363.24,570.22c20.97,20.16,42.21,40.05,62.52,60.92,3.48,6.18,2.99,11.15-4.58,11.34-41.16-4.94-82.98-4.71-124.2-8.63-25.45-2.42-47.19-5.42-56.04-33.27-6.45-20.29,8.32-63.72,25.49-76.04,38.85-27.87,71.54,21.38,96.8,45.68Z"/>
    <path class="cls-1" d="M448.01,610.66l-6.51,1.39c-3.21-3.25-6.58-6.36-9.72-9.67-24.95-26.39-64.13-70.14-84.86-99-12.46-17.34-15.54-36.59-2.56-55.01,11.89-16.86,53.37-30.05,72.94-24.14,34.15,10.32,28.12,41.62,29.31,68.75,1.33,30.34,1.18,60.55,1.75,91.06.16,8.4,4.89,18.08-.36,26.62Z"/>
    <path class="cls-1" d="M507.59,434.65c10.63-1.1,43.78,8.47,52.8,14.59,21.39,14.53,23.27,39.6,9.59,60.14-17.91,26.88-58.91,77.25-81.32,100.79-2.29,2.4-4.21,5.66-7.82,6.24-9.06.07-5.7-19.03-6.15-25.42-1.4-19.97-1.22-37.92-1.66-57.88-.47-21.3-4.61-44.89-1.67-66.31,2.27-16.5,20.3-30.5,36.23-32.15Z"/>
    <path class="cls-1" d="M614.33,520.47c32.73-5.64,47.56,20.14,57.34,46.88,7.81,21.36,2.4,40.53-16.02,53.98-46.69,14.48-98.77,13.48-147.08,22.97-4.31,1.21-8.61-5.08-6.82-8.63,2.39-4.73,17.99-20.87,22.83-26.34,19.96-22.58,50.29-60.32,71.78-78.81,4.97-4.28,11.39-8.91,17.97-10.05Z"/>
    <path class="cls-1" d="M465.53,629.02c25.43-1.48,30.78,39.81,3.02,41.73-28.25,1.95-30.64-40.13-3.02-41.73Z"/>
    <path class="cls-1" d="M685.98,747.89c3.99-1.32,16.25,3.19,21.21,4.59,31.37,8.89,79.11,22.68,108.16,35.43,21.38,9.39,30.88,30.82,21.04,52.68-3.53,7.84-21.24,30.1-28.39,34.65-20.48,13.05-42.57,4.67-56.33-13.15-24.31-31.51-42.85-72.3-67.23-104.38-1.75-2.94-2.7-8.43,1.53-9.82Z"/>
  </g>
</svg>