<?xml version="1.0" encoding="UTF-8"?>
<svg id="Camada_9" xmlns="http://www.w3.org/2000/svg" version="1.1" viewBox="0 0 3102.13 1350">
  <!-- Generator: Adobe Illustrator 29.8.5, SVG Export Plug-In . SVG Version: 2.1.1 Build 2)  -->
  <defs>
    <style>
      .st0 {
        fill: #006837;
      }

      .st1 {
        fill: #fd7f00;
      }
    </style>
  </defs>
  <g>
    <path class="st0" d="M388.32-713.55c-7.35,0-13.97-2.57-18.64-7.24l-2.85-2.85-1.04-3.9c-1.04-3.92-2.65-10.06-4.52-18.07l-.03-.15c-1.73-7.9-3.74-19.24-6-33.86-7.75,25.88-14.45,37.57-27.55,37.57-8.41,0-12.84-5.91-16.4-10.66-4.95-6.6-10.73-18.78-15.43-29.74-1.94,16.06-4.35,33.75-7.94,49.9l-.95,4.26-3.09,3.09c-4.7,4.7-11.31,6.99-20.2,6.99-27.42,0-28.21-20.91-28.21-23.29v-5h.77c.16-.93.4-2.37.68-4.38l2.9-18.22c2.02-11.9,5.4-32.11,10.09-61.09,7.19-42.7,12.2-59.89,19.87-68.17l5.02-5.42,7.35.67c3.91.36,8.06,1.06,12.7,2.15l1.93.45,1.75.94c6.87,3.7,12.14,10.56,15.66,20.38.28.64.59,1.36.93,2.17.93,2.19,2.09,4.91,3.59,8.07l.14.29,4.68,11.08c8.11-31.03,13.74-41.32,23.3-45.08l9.16-3.6,5.09,5.11c.76.31,1.81.73,3.24,1.26l.45.17.44.2c10.51,4.73,12.76,10.13,16.85,19.94l.17.41c7.08,16.61,12.87,37.71,17.19,62.67,3.6,15.74,8.29,38.64,15.02,71.74l.82,4.48v1.35c0,14.22-11.82,25.36-26.92,25.36l-.02.02Z"/>
    <path class="st0" d="M433.14-703.7c-13.23,0-26.92-8.52-26.92-22.77v-20c-.26-9.17-.26-15.94-.26-20.42,0-20.52,0-28.2.78-55.62l.02-.41c.62-10.32,3.57-22.76,8.76-37.05,1.44-4.78,3.59-10.05,6.93-17.04l.78-1.63,1.14-1.4c11.08-13.54,23.06-13.54,41.21-13.54h10.31c9.34,0,16.55,1.7,22.04,5.2,22,14.3,25.53,37.8,27.63,64.79l3.87,41.04c1.61,17.23,2.4,31.25,2.4,42.87,0,7.2-.13,12.7-1.75,17.78-3.02,9.46-10.78,15.1-20.77,15.1-15.95,0-21.81-10.81-23.59-15.46-2.36-6.16-2.64-12.95-2.8-22.61v-16.49c.01-5.14.03-13.11-.39-17.05-1.68-.08-4.48-.16-8.98-.16-3.54,0-12.05,0-16.01.53-.15,1.16-.31,3.01-.34,5.86,0,1.51-.16,3.2-.35,5.33-.07.76-.14,1.6-.22,2.5-.07.8-.21,2.39-.21,2.39-.1,1.11-.23,2.58-.25,3.2l.25,1.28v4.33c0,2.38,0,6.35-.28,11.67-.07,1.41-.15,2.71-.22,3.9-.15,2.67-.28,4.95-.28,6.19v.34l.26,1.29v4.85c0,10.22-7.13,21.22-22.77,21.22h.01ZM482.2-780.37l-22.37-45.06c.26,0,1.71-.03,4.4-.65l.54-.13.55-.08c4.16-.64,7.45-.95,10.05-.95.81,0,1.62.04,2.43.1-.84-3.96-2.39-10.12-5.28-19.42-.94-.09-2.35-.17-4.4-.17-3.14,0-8.27,8.79-11.51,21.31h3.22l22.37,45.05Z"/>
    <path class="st0" d="M586.54-710.18c-15.73,0-22.77-9.88-22.77-19.66,0-44.99,1.1-82.25,3.28-110.89-.51.08-1.02.17-1.54.26-7.71,1.33-14.51,2.03-19.65,2.03-12.88,0-17.67-6.29-19.42-11.57l-.76-2.3v-3.2c0-1.65,0-4.42-.23-7.81-.07-1.12-.15-2.15-.22-3.08-.19-2.61-.34-4.65-.34-6.47,0-11.34,7.68-22.77,24.85-22.77,2.78,0,5.16.61,7.75,1.35l.31.09s.54.18.63.21c4.15.46,8.51.68,13.34.68,5.9,0,14.48-.46,27.31-1.27,14.09-.88,23.51-1.07,28.92-1.07,17.84,0,24.45,1.03,29.45,4.61l.23.17c7.61,5.7,7.61,15.55,7.61,20.85,0,26.35-12.81,30.29-20.44,30.29-2.34,0-5.39-.34-9.08-1-3.23-.54-4.35-.55-4.4-.55h-11.76c-1.67,14.04-2.52,27.54-2.52,40.19,0,3.39.14,8.01.31,13.86.07,2.19.13,4.5.2,6.97.27,9.54.27,16.68.27,21.4,0,23.39-.89,30.76-2.33,35.06l-1.9,5.7-5.31,2.81c-6.41,3.39-13.74,5.11-21.79,5.11h0Z"/>
    <path class="st0" d="M694.59-708.11c-7.74,0-16.57-.5-23.54-6.44-7.38-6.3-8.85-15.42-9.32-23.5l-.02-.33v-.33c-.26-19.34-1.56-48.74-3.86-87.37-.08-.59-.31-2.01-.5-3.17-.18-1.13-.4-2.46-.64-3.98l-.06-.4c-.9-7.22-.9-9.41-.9-10.23,0-13.97,10.05-34.17,28.21-34.17h6.96l.25.25h2.11c2.44,0,6.03-.14,10.58-.32l4.92-.19c7.27-.27,12.59-.27,16.1-.27,18.89,0,31.39,2.11,39.32,6.64l5.93,3.39,1.34,6.7c.55,2.75.55,5.23.55,7.86,0,6.08-1.15,11.05-3.53,15.21l-2.8,4.91-5.35,1.84c-9.36,3.22-24.18,4.8-46.47,4.95.31,4.3.59,8.52.85,12.78.06.79.13,1.46.19,2.04.49.01,1.04.02,1.68.02h5.96c2.37,0,7.75-.13,19.96-.76h.16c1.95-.08,3.49-.15,4.68-.21v-.32h9.95l1.06.15c.76.11,1.01.11,1.5.11h6.21l4.39,4.39c2.18,2.18,8.8,8.8,8.8,18.9,0,4.63-1.08,10.27-3.3,17.25l-2.98,9.35-9.76,1.02c-3.04.32-18.33,1.89-21.25,1.89h-.5l-26.72-1.77c.04,1.25.13,2.82.24,4.68h8.32c16.63,0,25.52-.56,28.07-1.04l.35-.06,4.35-.69,2.19-.54h1.84c3.42,0,11.89,1.2,16.82,12.27l1.78,4-.65,4.33c-.77,5.12-1.13,8.86-1.13,11.76v10.81l-10.26,3.42c-7.21,2.4-15.87,3.62-25.73,3.62-2.49,0-5.63-.15-9.61-.34-1.26-.06-2.6-.13-4.03-.19-5.6-.24-9.77-.24-12.53-.24-5,0-8.65.25-11.49.78l-.36.06-.18.03c-1.48.22-2.5.39-3.18.51v.95h-5,.03Z"/>
    <path class="st0" d="M214.84-487.11c-14.15,0-19.77-2.12-23.09-3.96l-.24-.14c-34.2-19.97-51.53-47-51.53-80.35,0-22.91,7.61-44.83,22.63-65.14,14.32-18.98,38.26-31.22,61.04-31.22,12.46,0,22.77,3.33,31.53,10.18l5.76,4.5v10.42c0,24.15-25.57,26.91-39.31,28.39-5.74.59-8.45,1.4-9.19,1.65-9.44,6.14-17.06,23.68-17.06,39.41,0,13.47,4.06,23.74,12.43,31.38.47.27,3.36,1.74,11.84,2.73,7.79.91,16.86,1.02,23.48,1.11,1.59.02,3.07.04,4.4.07l14.7.29v13.06l.26.78v4.24c0,13.12-6.74,23.5-18.49,28.46-8.66,3.66-19.13,4.16-29.16,4.16v-.02Z"/>
    <path class="st0" d="M279.62-485.29c-13.23,0-26.92-8.52-26.92-22.77v-20c-.26-9.17-.26-15.94-.26-20.42,0-20.52,0-28.2.78-55.62l.02-.41c.62-10.32,3.57-22.76,8.76-37.05,1.45-4.79,3.59-10.05,6.93-17.04l.78-1.63,1.15-1.4c11.08-13.54,23.06-13.54,41.2-13.54h10.31c9.34,0,16.55,1.71,22.04,5.2,22,14.3,25.53,37.8,27.62,64.79l3.87,41.04c1.61,17.23,2.4,31.25,2.4,42.87,0,7.2-.13,12.7-1.75,17.78-3.02,9.46-10.78,15.1-20.77,15.1-15.95,0-21.81-10.81-23.59-15.46-2.36-6.16-2.64-12.95-2.8-22.61v-16.49c.01-5.14.03-13.11-.39-17.05-1.7-.08-4.5-.17-8.98-.17-3.54,0-12.05,0-16.01.53-.15,1.16-.31,3.01-.34,5.86,0,1.5-.15,3.11-.35,5.33-.07.76-.14,1.6-.22,2.5-.07.86-.14,1.66-.21,2.4-.09,1.04-.23,2.56-.25,3.19l.25,1.28v4.33c0,2.38,0,6.35-.28,11.67-.07,1.41-.15,2.71-.22,3.9-.15,2.67-.28,4.95-.28,6.19v.33l.26,1.29v4.85c0,10.22-7.13,21.22-22.77,21.22h.02ZM306.31-607.02c.26,0,1.71-.03,4.4-.65l.54-.12.55-.08c4.16-.64,7.45-.95,10.06-.95.81,0,1.62.04,2.43.1-.84-3.96-2.39-10.12-5.28-19.42-.94-.09-2.35-.17-4.4-.17-3.14,0-8.27,8.79-11.51,21.31h3.22v-.02Z"/>
    <path class="st0" d="M397.81-486.33l-3.68-2.34c-3.84-2.44-15.5-9.87-15.5-22.76,0-5.92,0-14.87-.25-26.62-.26-12.08-.26-21.07-.26-27.01,0-18.1,1.22-37.08,3.73-58.02l.13-1.09.29-1.06c.35-1.29.54-2.47.73-3.61l.05-.31c.09-6.47.58-26.15,3.35-34.45,2.09-6.28,9.33-20.88,31.33-20.88,17.74,0,22.71,2.12,34.46,8.25,1.8.94,3.78,1.97,6.12,3.15,2.69,1.09,5.53,2.62,8.81,4.39l1.15.62.62.42c10.25,6.94,17.52,15.92,21.62,26.7,1.55,3.34,1.55,6.48,1.55,8,0,22.3-25.18,43.69-37.2,52.62,3.62,4.95,12.06,7.73,31.37,12.41l.85.21c18.14,4.54,22.52,6.72,25.99,10.19l4.39,4.39v5.1c.14.64.35,1.54.54,2.36l.4,1.74c1.39,6.46,1.39,8.82,1.39,9.7v2.91l-.04.57c-.34,4.46-3.27,19.04-26.62,19.04-12.98,0-38.37-6.07-60.35-22.28-.68,10.35-2.12,18.71-4.35,25.38-6.73,20.12-20.59,22.29-26.24,22.29h-4.38ZM434.57-629.74c.1-.07.19-.13.28-.2-.07-.04-.14-.08-.21-.12-.02.11-.04.21-.07.32Z"/>
    <path class="st0" d="M519.03-499.03s-4.52-4.54-4.59-4.61c-.68-.5-1.31-1.05-1.89-1.63l-2.02-2.03-1.13-2.63c-2.39-5.57-3.55-11.14-3.55-17.05,0-3.62.43-7.77,1.29-12.35.7-3.75.78-5.84.78-6.57v-15.81c0-19.89,1.97-43.13,5.87-69.08l.5-3.31,1.86-2.78c.96-1.45,2.11-2.75,3.43-3.89-5.4-6.96-8.03-14.01-8.03-21.48,0-16.13,13.24-29.25,29.51-29.25,12.54,0,27.18,8.14,27.18,31.07v4.11l-2.09,3.53c-.76,1.28-1.43,2.44-2.04,3.49-2.28,3.94-4.37,7.35-6.91,10.08,3.98,5.94,5.86,14.27,5.86,25.69,0,2.71-.18,6.1-.39,10.02l-.14,2.69c-.1,2.09-.21,3.92-.3,5.45-.09,1.52-.2,3.38-.2,3.87,0,10.07-.81,22.64-2.42,37.38l-1.66,14.44c.04.29.26,1.94.33,2.53.38,3.01.38,5.3.38,6.54,0,19.48-12.2,31.58-31.84,31.58h-7.79,0Z"/>
    <path class="st0" d="M618.6-483.74l-3.83-.77c-.54-.09-1.01-.18-1.42-.27h-.23l-1.74-.42c-16.03-3.88-29.62-12.94-39.32-26.19-9.92-13.57-15.17-30.96-15.17-50.32v-7c0-27.67,14.22-70.45,35.39-90.04,11.23-10.55,25.3-15.91,41.8-15.91,21.56,0,40.32,9.92,54.25,28.7,10.79,14.54,18.09,34.23,20.02,54.03l.07.73v.73c0,2.16,0,5.11.21,8.93l.56,5.61v.75c0,11.25-7.23,40.19-11.42,50.61-10.52,27.45-35.95,40.83-77.69,40.83h-1.49,0ZM602.97-570.26c.3,26.66,8.01,33.98,35.52,33.98,12.5,0,20.24-22.34,20.24-43.04,0-12.97-2.29-23.53-6.81-31.39l-.13-.24c-.68-1.24-1.09-1.93-1.31-2.27-5.43-5.1-15.27-9.4-19.76-9.4-15.87,0-23.87,30.31-27.23,48.38v1.71l-.4,1.6s-.07.49-.11.7v-.03Z"/>
    <path class="st0" d="M775.56-487.11c-14.15,0-19.77-2.12-23.09-3.96l-.24-.14c-34.2-19.98-51.52-47-51.52-80.35,0-22.91,7.61-44.83,22.63-65.14,14.32-18.98,38.26-31.22,61.04-31.22,12.46,0,22.77,3.33,31.53,10.18l5.76,4.5v10.42c0,24.15-25.57,26.91-39.3,28.39-5.77.6-8.44,1.39-9.2,1.66-9.44,6.15-17.05,23.68-17.05,39.4,0,13.48,4.07,23.74,12.43,31.38.48.28,3.38,1.74,11.84,2.72,7.79.91,16.86,1.02,23.48,1.11,1.59.02,3.07.04,4.4.07l14.7.29v13.05l.26.77v4.26c0,13.12-6.74,23.5-18.49,28.46-8.66,3.66-19.13,4.16-29.15,4.16h-.03Z"/>
    <path class="st0" d="M909.26-492.81c-.85,0-2.23,0-4.08-.26h-7.83l-4.39-4.39c-7.66-7.66-11.39-20.46-11.39-39.11,0-8.46.66-18.61,2.15-32.91.09-.83.18-1.62.26-2.37-3.92-.03-8.98-.52-16.79-1.38-1.45-.16-2.85-.3-4.21-.42-.13,5.98-.26,12.93-.39,20.74l-1.12,38.84-1.15,2.65c-7,16.09-19.74,17.83-24.9,17.83-14.22,0-25.36-11.26-25.36-25.62,0-2.84.36-5.39,1.11-7.77.07-3.05.13-6.26.2-9.63.57-29.48,1.36-69.84,10.28-125.41l.49-3.08,1.68-2.63c3.95-5.04,7.99-7.72,10.66-9.15,5.29-2.85,10.89-3.9,18.41-5.31.8-.15,2.66-.49,4.84-.81,11-1.59,23.54-1.56,31.11-1.37.07,0,.35.04.85.04,1.17,0,2.61-.15,4.28-.44l1.79-.32,1.81.12c5.1.34,22.23,3.96,27.24,6.24l1.26.57,1.13.79c5.64,3.95,9.59,10.32,12.09,19.49l.73,2.66-.27,2.75c-5.78,58.85-6.41,75.3-6.41,79.64,0,3.52.25,8.92.74,16.07.55,7.92.81,13.85.81,18.13,0,22.69-2.32,37.82-13.9,43.16l-.32.14c-1.51.68-3.47,1.41-5.82,1.91-2.13.45-4.04.6-5.59.61ZM877.33-625.42c2.8.01,5.38.27,7.87.52l.79.08,1.16.13c.13-1.94.27-3.85.42-5.8l.02-.24c.17-1.8.32-3.57.45-5.31-1.61-.05-3.35-.07-5.21-.07-5.22,0-9.82.18-13.74.55-.07.4-.13.79-.18,1.15l-.03.23c-.45,3.28-.82,6.03-1.25,8.42,3.02.14,6.26.25,9.7.33h0Z"/>
  </g>
  <g>
    <path class="st1" d="M1488.43-729.83c-3.37,0-6.22-1.04-8.03-2.85-1.04-3.89-2.59-9.85-4.41-17.62-2.33-10.62-5.18-27.73-8.55-51.31-2.85-22.54-5.96-39.65-8.81-51.31l-1.3.26c-5.18,25.65-20.47,94.32-29.54,94.32-.78,0-2.07-1.55-4.4-4.66-7-9.33-18.4-37.31-23.58-51.82-1.81-5.44-4.66-13.73-10.62-25.91-1.3,2.85-3.63,18.66-7.25,47.94-1.81,15.55-4.41,37.05-8.55,55.71-1.81,1.81-5.18,2.59-9.59,2.59-8.81,0-13.21-2.85-13.21-8.29,0,.52.52-1.81,1.3-7.26l2.85-17.88c2.33-13.73,5.7-33.95,10.11-61.15,4.41-26.17,9.59-53.38,16.07-60.38,2.85.26,6.22.78,10.62,1.81,3.37,1.81,6.48,5.96,8.81,12.7,1.04,2.33,2.59,6.22,4.92,11.14l10.62,25.13c1.3,2.33,2.85,5.96,4.66,10.88l6.22,20.99c10.36-46.38,18.4-80.33,25.65-83.18.26.26,2.59,1.3,6.74,2.85,5.18,2.33,5.44,3.11,9.33,12.44,6.74,15.81,12.18,35.76,16.32,59.86,3.63,15.81,8.55,39.9,15.03,71.78l.52,2.85c0,6.22-5.44,10.36-11.92,10.36h-.01Z"/>
    <path class="st1" d="M1609.43-723.09c-10.62,0-11.14-7.77-11.4-23.32v-11.4c0-24.62.78-32.91-9.59-36.28-1.55-.52-6.48-.78-14.77-.78-25.65,0-31.09.78-31.35,21.25,0,1.3-.26,3.63-.52,6.74s-.52,5.44-.52,7c0,.52,0,1.3.26,2.59v2.85c0,2.33,0,5.96-.26,10.88s-.52,8.55-.52,10.88c0,.78,0,1.81.26,3.11v3.37c0,4.15-2.59,6.22-7.77,6.22s-11.92-2.85-11.92-7.77v-20.21c-.26-9.07-.26-15.81-.26-20.21,0-20.47,0-27.99.78-55.19.52-8.55,3.11-19.69,8.03-33.17,1.3-4.4,3.37-9.33,6.22-15.29,7-8.55,12.7-8.03,36.79-8.03h3.11c6.48,0,11.14,1.04,13.99,2.85,15.55,10.11,18.66,26.69,20.73,53.38l3.89,41.2c1.55,16.58,2.33,30.32,2.33,41.46s-.26,17.88-7.52,17.88h0ZM1586.11-854.98c-2.33-7.51-10.88-8.03-17.88-8.03-22.54,0-28.5,43.27-28.5,46.38,0,3.37,4.41,4.92,13.47,4.92h6.74c1.81,0,4.41-.26,7.77-1.04,3.37-.52,5.96-.78,7.77-.78,1.3,0,3.11.26,5.7.52,2.33.26,4.15.52,5.44.52,4.92,0,7.26-3.11,7.26-9.59,0-5.44-2.59-16.58-7.77-32.91h0Z"/>
    <path class="st1" d="M1744.95-856.02c-1.3,0-3.63-.26-6.48-.78-3.11-.52-5.44-.78-7-.78h-24.88c-2.85,18.92-4.41,37.31-4.41,55.19,0,4.92.26,11.92.52,21.25s.26,16.33.26,20.99c0,17.1-.52,27.21-1.56,30.32-4.41,2.33-9.33,3.37-14.77,3.37s-7.77-1.56-7.77-4.66c0-48.97,1.3-88.36,3.89-117.64,0-.78.26-2.07.52-3.89.26-1.81.52-3.37.52-4.41,0-.78-1.3-1.3-3.63-1.3-3.89,0-9.59.52-17.1,1.81-7.52,1.3-13.22,1.81-17.1,1.81-3.11,0-4.92-.52-5.18-1.3v-.78c0-1.81,0-4.92-.26-8.81-.26-3.89-.52-6.74-.52-8.55,0-5.18,3.37-7.77,9.85-7.77.78,0,1.81.26,3.63.78,1.55.52,2.59.78,3.37.78,4.66.52,9.59.78,15.03.78,6.48,0,15.81-.52,28.24-1.3,12.44-.78,21.77-1.04,27.99-1.04,11.92,0,18.91.52,20.73,1.81,1.04.78,1.55,3.63,1.55,8.81,0,10.11-1.81,15.29-5.44,15.29v.02Z"/>
    <path class="st1" d="M1861.81-778.54c-12.44,1.3-18.92,1.81-19.69,1.81l-39.13-2.59c-2.07-.26-3.11,4.66-3.11,14.77,0,2.59.26,5.96.52,10.36l.52,10.36h22.54c16.33,0,26.69-.52,30.84-1.3l4.92-.78,1.04-.26c1.04,0,2.07,1.04,3.11,3.37-.78,5.18-1.3,9.85-1.3,13.99-5.44,1.81-12.44,2.85-20.99,2.85-2.85,0-7.26-.26-12.96-.52-5.96-.26-10.36-.26-13.21-.26-5.44,0-10.11.26-14.25,1.04-5.18.78-7.25,1.3-5.96,1.3-13.73,0-17.1-2.33-17.88-15.81-.26-19.43-1.55-48.97-3.89-88.1,0-.78-.52-3.63-1.3-8.55-.52-4.15-.78-7-.78-8.29,0-8.03,5.96-19.17,13.21-19.17h.78c.26.26.52.26.78.26.26-.26.78-.26,1.55-.26h.26c1.3.26,3.37.26,5.96.26,3.63,0,9.07-.26,16.07-.52,7-.26,12.18-.26,15.55-.26,15.81,0,26.43,1.56,31.87,4.66.26,1.3.26,2.85.26,4.92,0,3.37-.52,5.96-1.55,7.77-8.29,2.85-23.32,4.15-45.09,4.15h-12.7c.52,6.48,1.3,16.07,2.07,28.76,1.04,13.47,4.15,16.07,16.84,16.07h5.96c3.63,0,10.62-.26,20.73-.78,6.74-.26,9.85-.52,9.07-.52h3.89c1.81.26,2.85.26,3.63.26,2.85,2.85,4.41,5.44,4.41,8.29s-.78,7-2.59,12.7v.02Z"/>
    <path class="st1" d="M1314.95-503.39c-8.03,0-13.47-.78-15.81-2.07-29.28-17.1-44.05-39.65-44.05-67.37,0-19.43,6.48-38.35,19.69-56.23,11.14-14.77,30.58-25.13,48.97-25.13,9.07,0,16.32,2.33,22.28,7v3.11c0,9.59-9.07,11.66-25.91,13.47-7.52.78-12.44,2.07-14.77,3.37-15.55,9.33-24.88,32.91-24.88,52.6,0,17.88,5.7,31.87,17.36,42.5,8.55,8.03,36.28,7.51,49.49,7.77,0,.26,0,.78.26,1.55v1.81c0,15.55-13.99,17.62-32.65,17.62h.02Z"/>
    <path class="st1" d="M1455.91-504.68c-10.62,0-11.14-7.77-11.4-23.32v-11.4c0-24.62.78-32.91-9.59-36.28-1.55-.52-6.48-.78-14.77-.78-25.65,0-31.09.78-31.35,21.25,0,1.3-.26,3.63-.52,6.74-.26,3.11-.52,5.44-.52,7,0,.52,0,1.3.26,2.59v2.85c0,2.33,0,5.96-.26,10.88s-.52,8.55-.52,10.88c0,.78,0,1.81.26,3.11v3.37c0,4.15-2.59,6.22-7.77,6.22s-11.92-2.85-11.92-7.77v-20.21c-.26-9.07-.26-15.81-.26-20.21,0-20.47,0-27.98.78-55.19.52-8.55,3.11-19.69,8.03-33.17,1.3-4.41,3.37-9.33,6.22-15.29,7-8.55,12.7-8.03,36.79-8.03h3.11c6.48,0,11.14,1.04,13.99,2.85,15.55,10.11,18.66,26.69,20.73,53.38l3.89,41.2c1.55,16.58,2.33,30.32,2.33,41.46s-.26,17.88-7.52,17.88h0ZM1432.59-636.57c-2.33-7.51-10.88-8.03-17.88-8.03-22.54,0-28.5,43.27-28.5,46.38,0,3.37,4.41,4.92,13.47,4.92h6.74c1.81,0,4.41-.26,7.77-1.04,3.37-.52,5.96-.78,7.77-.78,1.3,0,3.11.26,5.7.52,2.33.26,4.15.52,5.44.52,4.92,0,7.26-3.11,7.26-9.59,0-5.44-2.59-16.58-7.77-32.91h0Z"/>
    <path class="st1" d="M1604.9-533.18c-.26,3.37-4.15,5.18-11.66,5.18-15.29,0-55.71-11.14-75.4-46.12,0,2.59,0,6.48.26,11.66s.26,9.07.26,11.66c0,32.13-5.44,48.2-16.07,48.2-5.7-3.63-8.55-7-8.55-10.11,0-5.96,0-15.03-.26-26.95s-.26-20.73-.26-26.69c0-18.14,1.3-36.79,3.63-56.23.78-2.85,1.04-5.18,1.3-6.48,0-.26.26-24.1,2.59-31.09,2.33-7,8.03-10.62,17.1-10.62,17.88,0,17.88,1.81,34.46,10.11,2.07.78,4.92,2.33,8.29,4.15,8.03,5.44,13.47,12.44,16.32,20.47.26.26.26.78.26,1.81,0,14.77-21.77,35.24-39.65,46.38,2.33,23.06,20.47,27.21,46.12,33.43,11.4,2.85,17.62,4.92,18.92,6.22,0,.78.52,2.85,1.3,6.22.78,3.63,1.04,5.7,1.04,6.48v2.33h0ZM1523.54-650.05c-4.92,20.99-7.25,34.72-7.25,41.72,0,.26,0,.78.26,1.56v1.55c5.44-.26,26.69-12.44,30.84-16.84,2.85-2.85,4.15-6.22,4.15-9.85,0-10.11-15.81-17.1-27.99-18.14h-.01Z"/>
    <path class="st1" d="M1644.8-557.02l-1.81,15.81c0,1.04.26,2.59.52,4.66s.26,3.63.26,4.66c0,11.14-5.7,16.58-16.84,16.58h-1.55c-.26-.26-.52-.52-.78-1.04-.52-.26-1.04-.52-1.3-.78-1.56-3.63-2.33-7.25-2.33-11.14,0-2.33.26-5.44,1.04-9.59.78-4.15,1.04-7.25,1.04-9.33v-15.81c0-18.66,1.81-40.94,5.7-66.85,2.07-3.11,9.59-3.63,14.77-3.89,3.11,2.85,4.66,9.33,4.66,18.92,0,2.85-.26,7-.52,11.92-.26,5.18-.52,8.55-.52,10.11,0,9.59-.78,21.51-2.33,35.76h0ZM1636.25-648.23c-.26-.26-.78-.26-1.3-.52-.78,0-1.3,0-1.55-.26-4.41-4.92-6.74-9.59-6.74-14.51,0-8.03,6.48-14.25,14.51-14.25s12.18,5.44,12.18,16.07c-7.51,12.7-6.74,13.47-17.1,13.47h0Z"/>
    <path class="st1" d="M1783.94-531.37c-7.51,19.69-25.65,31.35-63.74,31.35l-2.59-.52c-1.55-.26-2.33-.52-2.59-.52-24.62-5.96-43.01-27.98-43.01-61.93v-7c0-24.62,13.22-62.97,30.58-79.03,8.55-8.03,19.18-11.92,31.61-11.92,36.54,0,56.23,37.31,59.34,69.18,0,2.33,0,5.7.26,10.11l.52,5.18c0,8.55-6.48,35.5-10.36,45.09h-.02ZM1765.03-619.47c-1.55-2.85-2.59-4.41-3.37-5.18-7.25-7.25-21.25-14.25-30.84-14.25-25.13,0-36.54,31.35-41.98,60.63-.26.78-.26,1.55-.26,2.59-.26,1.04-.26,1.81-.52,2.59,0,36.02,14.51,50.53,50.53,50.53,24.1,0,35.24-30.32,35.24-58.04,0-15.55-2.85-28.5-8.81-38.87h.01Z"/>
    <path class="st1" d="M1875.67-503.39c-8.03,0-13.47-.78-15.81-2.07-29.28-17.1-44.05-39.65-44.05-67.37,0-19.43,6.48-38.35,19.69-56.23,11.14-14.77,30.58-25.13,48.97-25.13,9.07,0,16.32,2.33,22.28,7v3.11c0,9.59-9.07,11.66-25.91,13.47-7.52.78-12.44,2.07-14.77,3.37-15.55,9.33-24.88,32.91-24.88,52.6,0,17.88,5.7,31.87,17.36,42.5,8.55,8.03,36.28,7.51,49.49,7.77,0,.26,0,.78.26,1.55v1.81c0,15.55-13.99,17.62-32.65,17.62h.02Z"/>
    <path class="st1" d="M2018.44-574.13c0,3.89.26,9.59.78,17.1.52,7.51.78,13.21.78,17.1,0,18.14-1.81,27.99-5.18,29.54-1.81.78-3.63,1.3-5.44,1.3-.78,0-1.56,0-2.85-.26h-2.85c-4.66-4.66-7-14.25-7-28.5,0-8.55.78-18.92,2.07-31.35,1.04-9.33,1.55-15.29,1.55-17.88-1.81-1.3-4.15-2.07-7-2.07-1.04,0-2.59.26-4.41.52-1.81.26-3.37.52-4.41.52-3.37,0-8.55-.52-15.55-1.3-7-.78-12.18-1.04-15.55-1.04h-2.33c-1.3.26-2.07.26-2.59.26-.26,8.03-.52,19.95-.78,35.76l-1.04,35.76c-2.59,5.96-6.22,8.81-11.14,8.81-5.96,0-10.36-4.66-10.36-10.62,0-1.81.26-3.37,1.04-4.66.78-29.02.26-72.81,10.36-135.78,4.15-6.48,20.99-9.59,50.79-9.59l-.26-.26c2.07.26,5.18.26,9.59-.52,3.89.26,19.18,3.63,22.02,4.92,2.59,1.81,4.66,5.44,6.22,11.14-4.41,44.83-6.48,72.04-6.48,81.1h.02ZM1982.94-652.38c-11.14,0-19.69.78-25.91,2.33-1.3,3.11-2.07,7.26-2.85,12.18-.78,5.7-1.3,9.59-2.07,11.92-.78,4.66-1.3,8.81-1.3,12.7,6.74.78,15.55,1.3,26.43,1.55,2.33,0,4.66.26,7.26.52l2.33.26,2.07.26h12.44c.26-3.37.52-9.85,1.3-19.95.78-8.03,1.04-14.77,1.04-19.69-2.59-1.3-9.59-2.07-20.73-2.07h-.01Z"/>
  </g>
  <g>
    <path d="M96.05,497.97c56.92,56.05,157.16,27.03,176.13-49.4,9.32-37.56-3.71-58.4,18.75-97.65,39-68.13,136.75-68.01,180.68-2.98,31.96,47.31.4,105.64,48.6,150.25,52.55,48.63,137.87,34.66,169.5-29.79,23.32-47.51-2.02-91.47,39.18-135.42,55.64-59.35,158.96-34.76,180.7,42.58,12.5,44.47-5.27,74.85,30.23,115.27,48.42,55.15,141.16,46.18,173.86-20.42,15.91-32.4,6.81-57.52,15.72-90.99,21.65-81.34,128.19-109.35,183.27-43.19,38.01,45.66,13.95,88.57,36.82,132.93,38,73.68,144.41,78.68,186.07,6.03,25.2-43.94,6.11-77.69,29.05-121.28,37.68-71.61,141.61-72.17,184.51-3.08,28.72,46.26-.23,100.2,44.25,144.9,49.45,49.69,133.02,38.96,168.21-21.32,28.54-48.91.64-96.39,42.87-141.43,55.64-59.35,158.96-34.76,180.7,42.58,11.94,42.48-4.32,73.79,27.83,112.82,47.14,57.22,139.14,49.98,174.39-14.98,18.54-34.15,8.19-58.72,17.57-93.98,21.62-81.24,128.36-109.45,183.27-43.19,35.97,43.4,16.17,78.9,32.4,122.8,29.87,80.79,142.83,92.73,188.61,19.12,25.22-40.57,11-61.19,20.71-100.54,18.61-75.38,119.9-104.76,176.13-49.4v101.85c-55.63-42.49-140.9-31.79-169.86,36.27-12.61,29.63-6.6,47.75-10.87,76.43-15.84,106.6-173.73,121.24-205.93,14.47-11.3-37.48,1.03-69.08-21.54-104.57-45.91-72.19-162.69-61.02-190.77,21.07-13.65,39.89,1.45,67.5-22.75,108.2-43.63,73.38-164.11,61.04-189.78-21.82-15.44-49.83,5.19-92.46-43.31-131.29-46.93-37.58-114-31.49-151.7,15.67-32.83,41.08-14.62,69.18-27.94,112.71-25.47,83.2-137.21,99.5-187.75,30.46-25.08-34.26-15.34-54.34-20.69-90.86-17.38-118.69-184.33-122.31-208.72-12.4-8.47,38.18,2.36,62.09-21.64,99.62-48.42,75.72-166.67,57.28-190.05-30.57-9.78-36.76,1.58-66.13-20.46-100.79-45.91-72.19-162.69-61.01-190.77,21.07-12.86,37.58,1.18,69.03-20.91,105.19-47.58,77.89-167.67,65.85-192.7-22.55-6.89-24.33-2.8-50.79-8.43-74.03-20.46-84.4-136.31-105.6-187.78-35.28-29.4,40.17-12.24,78.58-29.61,120.75-31.49,76.45-139.78,84.64-185.93,17.15-22.54-32.96-13.49-53.61-18.55-88.15-18.02-122.98-192.41-120.38-210.96-4.94-2.56,15.91.42,31.38-1.7,46.8-11.93,86.54-113.02,120.66-178.92,66.01v-106.7Z"/>
    <path d="M3006.07,745.33v101.85c-67.05-52.24-166.86-21.45-178.92,66.01-2.13,15.41.85,30.89-1.7,46.8-18.56,115.44-192.94,118.04-210.96-4.94-5.06-34.54,3.99-55.19-18.55-88.15-45.61-66.7-154.69-58.71-185.93,17.15-17.37,42.17-.21,80.57-29.61,120.75-37.07,50.65-113.64,57.22-159.56,14.11-41.34-38.82-23.2-80.26-37.73-127.17-25.87-83.47-142.06-94.06-189.88-21.91-24.49,36.95-9.4,69.56-22.65,108.3-28.23,82.53-144.72,93.49-190.77,21.07-22.57-35.49-10.23-67.08-21.54-104.57-32.16-106.66-191.24-93.4-206.66,18.58-2.32,16.84.63,32.55-2.74,50.61-20.95,112.13-192.17,112.46-209.93-8.76-5.97-40.73,5.37-59.21-25.4-95.85-48.43-57.67-146.15-48.2-177.38,21.7-20.06,44.9-.59,84.3-33.61,126.45-53.36,68.1-163.53,46.52-185.48-37.82-11.78-45.25,3.99-78.3-33.4-116.95-47.04-48.62-128.89-38.73-165.99,17.25-24.49,36.95-9.4,69.56-22.65,108.3-28.08,82.08-144.86,93.25-190.77,21.07-22.57-35.48-10.23-67.09-21.54-104.57-31.88-105.74-190-92.69-205.93,14.47-4.26,28.68,1.74,46.81-10.87,76.43-28.96,68.06-114.22,78.76-169.86,36.27v-106.7c49.35,46.18,129.79,35.72,164.05-22.68,28.29-48.23,1.03-95.69,42.38-141.92,59.07-66.05,172.57-29.98,185.17,56.74,2.93,20.17-.54,37.65,4.59,58.46,22.82,92.46,154.76,106.87,197.48,19.83,22.94-46.73-1.32-88.76,36.97-132.78,44.28-50.93,127.24-47.78,166.89,7.47,33.4,46.55,5.61,101.04,46.25,147.75,47.94,55.11,141.68,45.12,173.86-20.42,14.73-30.01,6.89-42.98,11.1-71.35,12.47-84.14,97.65-129.95,170.84-79.71,63.48,43.57,23.61,111.74,63.77,164.19,42.55,55.58,124.64,58.87,168.66,3.55,32.05-40.28,16.05-67.95,26.35-109.45,22.28-89.76,141.93-104.96,192.78-29.68,23.32,34.52,12.25,61.8,19.44,96.96,18.32,89.54,140.39,111.46,191.04,35.28,33.63-50.58,3.95-101.52,46.8-147.2,55.66-59.33,158.63-35.97,180.7,42.58,12.5,44.5-5.27,74.79,30.23,115.28,47.37,54.03,137.56,46.05,172-17.43,17.22-31.74,8.43-43.84,12.95-74.35,11.41-76.99,81.59-122.95,154.87-87.99,85.64,40.85,36.24,115.62,79.74,172.47,55.34,72.32,170.35,49.85,188.54-39.63,4.99-24.55.79-45.28,7.76-69.84,21.35-75.28,118.88-99.49,174.84-45.84Z"/>
    <path d="M3006.07,536.77v101.85c-55.63-42.49-140.9-31.79-169.86,36.27-15.63,36.74-3.12,70.68-20.1,106-40.26,83.77-169.52,75-196.69-15.1-11.31-37.48,1.04-69.07-21.54-104.57-46.06-72.42-162.54-61.47-190.77,21.07-13.25,38.73,1.84,71.37-22.65,108.3-37.53,56.58-118.85,65.97-165.99,17.25-48.87-50.51-10.96-118.76-61.62-166.33-45.55-42.77-118.75-36.65-157.27,11.54-34.37,43-12.94,80.23-33.59,126.46-31.23,69.9-128.95,79.36-177.38,21.7-30.77-36.64-19.44-55.12-25.4-95.85-17.76-121.24-189.01-120.86-209.93-8.76-6.32,33.89,2.31,56.05-16.6,90.11-43.37,78.14-166.57,66.06-192.81-20.92-11.31-37.48,1.04-69.07-21.54-104.57-46.06-72.42-162.54-61.47-190.77,21.07-12.86,37.58,1.18,69.03-20.91,105.19-46.52,76.14-165.43,65.68-191.62-18.8-14.88-48.01,4.06-86.59-37.8-127.11-45.55-44.09-121.9-36.11-159.52,14.03-30.73,40.96-11.68,77.27-29.59,120.76-31.23,75.85-140.32,83.84-185.93,17.15-22.54-32.96-13.49-53.61-18.55-88.15-18.01-122.93-194.6-124.28-212.1,3.62-1.67,12.21,1.33,25.62-.44,38.36-12.23,87.54-112.11,117.72-179.05,65.88v-106.7c57.23,55.06,157.01,27.64,176.13-49.4,9.24-37.22-3.85-59.17,18.73-97.67,40.56-69.16,140.43-68.06,182.66-.07,20.82,33.53,10.6,60.4,17.49,94.07,19.67,96.11,155.48,111.47,198.66,23.5,22.94-46.73-1.32-88.76,36.97-132.78,54.39-62.55,160.48-39.91,182.91,39.95,12.49,44.47-5.26,74.85,30.23,115.27,48.42,55.15,141.17,46.18,173.86-20.42,22.18-45.17-1.87-86.23,37.22-132.53,57.44-68.04,171.19-39.54,185.61,47.27,6.98,42.04-6.11,61.74,25.28,100.82,46.83,58.3,136.2,54.75,173.78-10.77,28.06-48.94,1.21-96.17,42.65-141.65,59.86-65.69,172.34-30.47,184.98,56.56,2.7,18.61-.42,36.07,3.41,54.79,18.45,90.18,141.07,111.62,191.04,35.28,33.41-51.03,4.13-101.73,46.8-147.2,45.28-48.26,125.69-44.09,164.68,10.1,33.99,47.24,5.44,101.21,46.25,147.76,47.69,54.39,137.4,46.31,172-17.43,24.85-45.77-.57-88.53,39.08-135.52,57.41-68.05,171.19-39.53,185.61,47.27,6.51,39.16-5.4,61.43,22.87,98.38,41.72,54.53,121.91,60.23,166.69,6.42,36.59-43.96,15.53-81.19,33.79-126.27,27.28-67.37,118.06-85.87,170.66-35.47Z"/>
    <path d="M96.05,1123.63c56.23,55.36,157.51,25.98,176.13-49.4,9.72-39.34-4.51-59.97,20.71-100.54,39.92-64.21,128.41-65.38,174.3-5.37,36.64,47.92,6.17,98.37,46.71,147.29,54.92,66.26,161.65,38.05,183.27-43.19,9.38-35.25-.96-59.83,17.57-93.98,35.26-64.97,127.23-72.18,174.39-14.98,44.71,54.24,1.59,126.61,71.7,170.8,44.08,27.79,100.44,23.41,136.83-15.4,41.67-44.45,15.17-90.23,40.98-138.47,34.12-63.77,119.38-74.48,170.11-24.29,47.09,46.6,14.36,96.78,44.24,144.91,41.17,66.29,133.06,68.97,178.64,5.62,31.88-44.31,8.08-83.18,34.92-129.98,37.57-65.51,126.96-69.09,173.78-10.77,33.22,41.38,16.76,65.05,27.45,108.35,20.68,83.74,133.37,105.47,185.81,37.26,33.64-43.77,14.01-87.57,34.85-130.05,32.69-66.62,125.42-75.55,173.86-20.42,42.76,48.67,13.66,102.5,46.25,147.75,39.76,55.21,122.56,58.45,166.89,7.47,38.28-44.03,14.03-86.06,36.97-132.78,42.59-86.77,176.63-73.69,197.39,19.92,7.84,35.36-1.27,66.64,20.62,100.63,42.15,65.46,142.28,64.19,180.78-3.08,22.46-39.25,9.43-60.09,18.75-97.65,18.97-76.43,119.2-105.45,176.13-49.4v101.85c-41.04-32.32-95.48-36.81-138.22-4.84-63.66,47.61-22.12,112.3-65.48,169.74h-164.9c-35.57-44.49-11.48-101.21-41.54-145.19-49.19-71.97-164.06-56.75-189.89,27.74-12.08,39.52,2.01,83.25-30.48,117.45h-160.05c-39.7-36.7-17.96-96.43-39.58-137.45-36.68-69.61-136.32-71.44-180.79-7.75-30,42.97-7.74,99.73-41.53,145.2h-164.9c-39.87-47.48-9.7-98.75-46.39-150.04-45.53-63.65-151.55-50.63-182.47,20.6-17.49,40.28.65,91.2-33.04,129.43h-164.9c-35.57-44.49-11.48-101.21-41.54-145.19-49.19-71.97-164.06-56.75-189.89,27.74-12.08,39.52,2.01,83.25-30.48,117.45h-160.05c-33.2-33.36-19.79-76.16-31.32-116.61-24.41-85.64-138.53-100.52-189.05-28.59-30.72,43.73-6.53,99.87-41.53,145.2h-164.9c-39.88-47.47-9.7-98.77-46.39-150.04-44.06-61.56-143.87-52.61-178.86,14.51-22.53,43.21-1.82,94.5-36.65,135.53H96.05v-97Z"/>
    <path d="M464.66,129.37c43.48,54.46,1.41,124.33,66.3,168.93,70.52,48.47,157.96,7.02,170.1-75.61,5.01-34.12-2.41-61.51,20.65-93.32h169.75c32.2,43.26,11.5,102.36,41.53,145.2,41.85,59.7,136.84,58.14,175.94-2.9,27.23-42.51,4.65-99.34,39.58-142.29h164.9c37.15,41.77,13.19,90.77,39.66,137.36,35.32,62.16,126.68,70.31,172.99,14.67,41.77-50.18,8.1-103.82,49.24-152.03h164.9c44.01,56.52.39,126.63,69.39,170.68,70.47,44.99,155.32,4.07,167-77.36,4.91-34.24-2.33-61.48,20.65-93.32h169.75c32.54,42.72,12.27,101.02,39.61,142.27,40.75,61.48,133.65,63.75,175.9,2.91,30.15-43.41,5.92-101,41.54-145.18h164.9c28.62,30.49,20.37,62.71,25.51,98.16,12.85,88.65,128.33,124.52,187.14,53.87,41.77-50.18,8.1-103.82,49.24-152.03h155.2v92.15c-55.64-42.49-140.89-31.79-169.86,36.27-18.94,44.51,1.75,79.2-31.85,123.35-52.84,69.41-163.36,48.88-186.01-36.22-9.78-36.76,1.58-66.13-20.46-100.79-45.98-72.3-162.87-60.63-190.77,21.07-15.13,44.28,4.05,77.14-30.31,120.04-38.34,47.87-116.72,50.07-159.03,6.21-35.62-36.91-21.49-74.48-32.7-117.65-20.88-80.4-128.57-105.4-183.07-40.26-34.84,41.64-16.85,70.93-30.37,115.14-25.3,82.78-136.24,100.65-187.75,30.46-30.99-42.22-9.69-83.48-34.92-129.98-45.55-83.97-178.18-63.39-195.7,30.36-7.55,40.41,4.69,60.26-22.46,98.79-51.16,72.58-164.99,53.15-188.02-33.38-9.78-36.76,1.58-66.13-20.46-100.79-45.38-71.36-158.96-61.52-188.6,18.39-16.81,45.33,1.26,80.59-32.48,122.72-38.34,47.87-116.72,50.07-159.03,6.21-51.2-53.07-2.32-125.87-75.31-176.89-46.49-32.5-111.92-21.46-145.17,23.97-24.65,33.69-15.17,51.29-19.95,86.75-11.48,85.08-105.89,127.9-174.18,73.39-57.35-45.77-24.57-94.86-54.18-149.52-46.57-85.96-181.29-61.89-196.73,34.18-2.56,15.9.38,31.35-1.7,46.8-11.72,86.85-113.02,120.96-178.92,66.01v-106.7c56.92,56.05,157.16,27.03,176.13-49.4,9.31-37.51-4.6-77.65,27.58-110.65h164.9Z"/>
    <path d="M910.86,1220.63h-208.55c23.38-115.3,186-117.53,208.55,0Z"/>
    <path d="M1337.66,1220.63h-208.55c22.1-117.36,184.37-115.43,208.55,0Z"/>
    <path d="M2186.42,1220.63h-208.55c23.02-115.89,186.03-116.84,208.55,0Z"/>
    <path d="M1759.62,1220.63h-208.55c26.73-114.21,188.75-118.22,208.55,0Z"/>
    <path d="M2613.22,1220.63h-208.55c22.73-117.35,183.16-115.68,208.55,0Z"/>
    <path d="M275.51,1220.63c26.87-114.52,188.63-117.76,208.55,0h-208.55Z"/>
    <path d="M1124.26,129.37c-27.64,113.31-183.54,113.54-208.55,0h208.55Z"/>
    <path d="M1973.02,129.37c-24.36,116.08-179.24,110.99-208.55,0h208.55Z"/>
    <path d="M697.46,129.37c-24.99,115.52-179.04,111.31-208.55,0h208.55Z"/>
    <path d="M1546.21,129.37c-17.33,112.77-185.19,113.31-203.7,0h203.7Z"/>
    <path d="M2399.82,129.37c-27.13,113.04-183.89,113.25-208.55,0h208.55Z"/>
    <path d="M2821.77,129.37c-17.33,112.77-185.19,113.31-203.7,0h203.7Z"/>
    <path d="M3006.07,1162.43v58.2h-179.45c19-81.44,116.7-117.61,179.45-58.2Z"/>
    <path d="M270.66,129.37c-10.19,82-114.03,111.19-174.6,58.2v-58.2h174.6Z"/>
  </g>
  <path class="st0" d="M884.34-674.72"/>
</svg>