<?xml version="1.0" encoding="UTF-8"?>
<svg id="Camada_9" data-name="Camada 9" xmlns="http://www.w3.org/2000/svg" viewBox="0 0 1080 1350">
  <defs>
    <style>
      .cls-1, .cls-2, .cls-3, .cls-4, .cls-5 {
        stroke-miterlimit: 10;
        stroke-width: 4px;
      }

      .cls-1, .cls-2, .cls-4 {
        stroke: #f2b801;
      }

      .cls-1, .cls-3 {
        fill: #fd7f00;
      }

      .cls-2, .cls-6 {
        fill: #f2b801;
      }

      .cls-3, .cls-5 {
        stroke: #fd7f00;
      }

      .cls-4 {
        fill: none;
      }

      .cls-5 {
        fill: #006837;
      }
    </style>
  </defs>
  <g id="ipanema">
    <g id="linha">
      <g>
        <g>
          <path class="cls-5" d="M761,292.02c-38.18,13.11-68.82,29.75-91.59,44.42.37.49.75.99,1.11,1.49,14.43-9.81,31.15-19.79,50.22-29.02,17.06-8.26,33.69-14.78,49.56-19.95-3.07.96-6.17,1.99-9.3,3.07ZM790.94,282.84c-6.08,1.62-12.32,3.44-18.69,5.49,6.45-2.01,12.76-3.8,18.9-5.42-.07-.02-.14-.04-.21-.07ZM834.92,326.04c-9.15-1.71-28.08-3.87-71.08,11.23-19.76,6.93-46.76,18.27-76.79,37.1-1.81-.99-8.53-4.91-13.39-12.42-1.79-2.74-3.32-5.97-4.26-9.73-1.66-6.61-.88-12.32-.09-15.72.03-.02.06-.04.1-.06-2.63-3.58-5.87-7.91-9.64-12.77-82.7-106.55-177.73-154.46-179.11-152.52-1.46,2.05,104.85,55.63,168.3,179.56.89,1.73,1.65,3.25,2.26,4.49.03,0,.04-.01.06-.02,2.02,2.66,4.19,6.02,6.07,10.12,1.59,3.46,2.69,6.81,3.43,9.94h0c1.23,5.16,1.51,9.69,1.51,13.05-7.84,3.19-15.72,6.37-23.63,9.55-8.65,3.47-17.34,6.94-26.07,10.4-8.23,3.27-16.5,6.53-24.8,9.79-10.76,4.21-21.57,8.43-32.45,12.64-8.26,3.19-16.56,6.37-24.9,9.58-7.41,2.82-14.84,5.64-22.3,8.47-3,1.12-6.01,2.27-9.03,3.4-5.71,2.14-11.4,4.28-17.08,6.4h-.02s-.01,0-.01,0c-10.15,3.78-20.24,7.54-30.32,11.25-9.81,3.6-19.55,7.17-29.28,10.7,0,.01-.01,0-.01,0h-.01c-8.29,3-16.56,5.98-24.81,8.94-19.3,6.91-38.47,13.69-57.51,20.31-2.35-2.62-8-9.6-9.69-20.37-.3-1.89-.44-3.71-.46-5.45-.15-7.97,2.17-14.04,3.34-16.69.08-2.62.15-5.17.21-7.62.28-11.17.24-19.95.22-23.41,0-.84-.01-1.44-.01-1.53-.14-15.19,8.49-197.54,9.82-197.45,1.31.09-20.11,175.19-24.2,190.17-.03.09-.36,1.31-.8,2.96-1.07,3.98-3.02,11.45-5.18,20.75-1.47,6.32-3.02,13.28-4.65,20.89.04-.01.06-.02.1-.03,2.64,1.55,7.83,5.01,11.79,11.26.47.74.93,1.53,1.35,2.35,6.71,12.79,2.45,25.31,1.61,27.64-30.41,12.89-63.8,28.97-98.9,49.09-32.95,18.88-62.12,38.29-87.58,56.97,8.97,4.3,19.95,8.66,32.75,11.94,30.33,7.76,49.79,4.07,100.36,5.55,14.04.41,31.67,1.26,52.05,3.02,8.81-58.87,14.55-88.17,17.17-87.91,2.41.25,2.23,25.25-.55,75.02,27.39-12.13,58.18-24.2,92.22-35.19,33-10.66,64.07-18.67,92.54-24.76.05.06.11.11.16.19-4.76-46.44-6.16-69.82-4.21-70.13,1.95-.3,7.23,22.38,15.86,68.04.08-.03.16-.05.24-.09,0-.17-.02-.32-.02-.48,2.75-1.68,5.52-3.35,8.29-5.02-8.76-32.58-15.74-60.79-21.11-83.56.23-.08.46-.17.69-.26h.01c2.45-.59,5.87-1.46,9.91-2.68,0,0,.59-.18,1.66-.52,10.1,27.55,19.28,53,27.44,75.91,28.1-16.65,57.23-33.3,87.41-49.83,30.2-16.56,59.9-32.16,89-46.87-28.86-33.95-34.65-43.62-33.28-44.99,1.38-1.37,10.86,4.64,44.14,34.47,0-.06.01-.13.01-.17,5.95-4.48,14.28-11.01,23.81-19.38,32.93-28.93,52.55-55.7,56.63-61.34,6-8.29,12.7-18.32,19.48-30.14-4.49-1.6-9.41-3-14.74-4.01Z"/>
          <path class="cls-3" d="M321.07,657.04c-4.37,10.2-13.44,14.02-15.23,14.73-20.11.79-43.16,1.34-68.69,1.27-68.93-.16-86.44-5.73-97.14-17.27-9.51-10.26-13.32-21.03-14.84-27.81.03.02.05.05.08.07,3.42-2.6,6.93-5.23,10.51-7.86.43-.31.84-.62,1.26-.93,8.97,4.3,19.95,8.66,32.75,11.94,30.33,7.76,49.79,4.07,100.36,5.55,14.04.41,31.67,1.26,52.05,3.02.1.02.22.02.33.03.56,2.4,1.9,9.45-1.44,17.26Z"/>
          <path class="cls-3" d="M528.55,606.72c-31.13,15.44-69.34,31.06-114.08,42.8-22.89,6-44.52,10.22-64.5,13.14-2.63-2.67-7.12-7.94-9.9-15.96-2.93-8.39-2.55-15.69-2.09-19.5.27-.13.54-.24.82-.36,27.39-12.13,58.18-24.2,92.22-35.19,33-10.66,64.07-18.67,92.54-24.76.05.06.11.11.16.19,2.29,2.53,6.25,7.68,8.01,15.3,2.76,11.93-1.77,21.6-3.18,24.34Z"/>
          <path class="cls-3" d="M553.44,594.11c-1.14.47-2.29.93-3.43,1.4-2.89-2.64-7.58-7.62-10.86-15.28-2.61-6.11-3.35-11.62-3.55-15.32,0-.17-.02-.32-.02-.48,2.75-1.68,5.52-3.35,8.29-5.02.21.78.41,1.54.63,2.32,2.81,10.37,5.78,21.17,8.95,32.38Z"/>
          <path class="cls-3" d="M754.88,482.59c-31.33,22.52-68.04,46.12-110.22,68.66-24,12.83-47.2,23.94-69.28,33.58-3.38-9.63-7-19.9-10.87-30.77-.68-1.9-1.36-3.82-2.05-5.76,28.1-16.65,57.23-33.3,87.41-49.83,30.2-16.56,59.9-32.16,89-46.87,2.82,2.26,6.8,6.03,10.14,11.72,4.57,7.79,5.61,15.23,5.88,19.27Z"/>
          <path class="cls-3" d="M867.66,354.35c-6.16,21.61-17.19,38.16-27.81,51.99-13.13,17.08-33.54,40.33-63.54,63.86-2.35-.15-10.93-.96-18.09-8.03-8.34-8.23-8.53-18.78-8.48-21.1h-.01c0-.06.01-.13.01-.18,5.95-4.48,14.28-11.01,23.81-19.38,32.93-28.93,52.55-55.7,56.63-61.34,6-8.29,12.7-18.32,19.48-30.14,3.73,1.35,7.15,2.83,10.24,4.34,4.2,2.05,7.79,4.17,10.76,6.08-.59,4.17-1.56,8.79-3.01,13.89Z"/>
        </g>
        <g>
          <path class="cls-6" d="M422.39,481.95c16.14,1.45,32.39,1.69,48.57.71,14.02-.85,28-2.61,41.8-5.24,3.46-.66,6.92-1.37,10.36-2.15,4-.9,8.03-1.77,11.94-2.9,1.85-.54,1.06-3.43-.8-2.89-6.44,1.87-13.11,3.24-19.71,4.55s-13.01,2.38-19.55,3.28c-14.89,2.04-29.93,3.01-44.96,2.95-9.23-.04-18.46-.48-27.65-1.3-1.92-.17-1.91,2.83,0,3h0Z"/>
          <path class="cls-6" d="M314.74,451.47h0c-.62.35-1.23.7-1.85,1.05-.8-.28.27.16.48.26.66.33,1.32.65,1.98.98,1.97.96,3.96,1.91,5.96,2.81,4.05,1.83,8.2,3.4,12.47,4.68,1.85.56,2.64-2.34.8-2.89-4.21-1.27-8.3-2.81-12.3-4.63-1.95-.89-3.88-1.81-5.81-2.76-.91-.45-1.82-1.01-2.78-1.35-.77-.27-1.64.31-1.85,1.05h0c-.51,1.86,2.38,2.66,2.89.8h0Z"/>
          <path class="cls-6" d="M451.67,471.25c21.74,2.77,43.75,3.55,65.64,2.44,5.75-.29,11.56-.62,17.36-1.27,1.9-.21,1.92-3.22,0-3-10.12,1.14-20.31,1.55-30.51,1.7-10.95.17-21.91-.14-32.83-.93-6.57-.48-13.12-1.12-19.66-1.95-1.91-.24-1.89,2.76,0,3h0Z"/>
          <path class="cls-6" d="M334.4,433.35c-4.84-2.33-9.63-4.75-14.38-7.28-1.7-.91-3.22,1.68-1.51,2.59,4.74,2.52,9.54,4.94,14.38,7.28.73.35,1.62.2,2.05-.54.38-.66.19-1.7-.54-2.05h0Z"/>
          <path class="cls-6" d="M535.06,469.48c-5.4-1.17-10.77-2.54-16.15-3.81-9.6-2.27-19.19-4.53-28.79-6.8-2.56-.61-5.13-1.21-7.69-1.82-1.88-.44-2.68,2.45-.8,2.89,6.72,1.59,13.43,3.17,20.15,4.76,7.85,1.85,15.71,3.71,23.56,5.56,2.97.7,5.94,1.46,8.92,2.11,1.88.41,2.69-2.48.8-2.89h0Z"/>
          <path class="cls-6" d="M329.89,482.39c-3.12-.24-6.24-.47-9.35-.71-.78-.06-1.53.73-1.5,1.5.04.86.66,1.44,1.5,1.5,3.12.24,6.24.47,9.35.71.78.06,1.53-.73,1.5-1.5-.04-.86-.66-1.44-1.5-1.5h0Z"/>
          <path class="cls-6" d="M397.56,490.89c14.15,1.25,28.29,2.56,42.51,2.39,18.77-.22,37.48-2.68,55.68-7.29,9.3-2.35,18.45-5.26,27.41-8.7,1.78-.68,1.01-3.59-.8-2.89-16.98,6.52-34.7,11.14-52.71,13.67-16.24,2.28-32.67,2.69-49.02,1.71-7.7-.46-15.38-1.21-23.07-1.89-1.92-.17-1.91,2.83,0,3h0Z"/>
          <path class="cls-6" d="M523.86,477.03c3.9-1.5,7.77-3.08,11.57-4.81.74-.33.92-1.4.54-2.05-.44-.76-1.31-.87-2.05-.54-3.56,1.62-7.2,3.1-10.85,4.51-.76.29-1.28,1.01-1.05,1.85.2.72,1.08,1.34,1.85,1.05h0Z"/>
          <path class="cls-6" d="M282.61,481.87c1.93,0,1.93-3,0-3s-1.93,3,0,3h0Z"/>
          <path class="cls-6" d="M611.54,407.16c-17.59,20.94-38.6,38.88-62.02,52.99-5.45,3.28-11.06,6.22-16.67,9.23l1.16-.15c-.86-.24-1.71.42-2.45.79-.95.47-1.9.95-2.86,1.41-2.06,1-4.14,1.96-6.23,2.91-1.76.8-.23,3.38,1.51,2.59,3.49-1.58,6.93-3.26,10.37-4.96l-1.16.15c1.09.3,2.61-.89,3.55-1.38,1.29-.67,2.57-1.34,3.84-2.03,2.55-1.38,5.08-2.8,7.58-4.26,5.46-3.19,10.81-6.59,16.02-10.19,11.67-8.06,22.66-17.09,32.81-27,5.85-5.71,11.41-11.72,16.67-17.98,1.23-1.47-.88-3.6-2.12-2.12h0Z"/>
          <path class="cls-6" d="M650.02,351.77c7.02-8.22,12.37-18.46,11.1-29.57-.22-1.9-3.22-1.92-3,0,1.18,10.33-3.68,19.78-10.22,27.45-1.25,1.46.86,3.59,2.12,2.12h0Z"/>
          <path class="cls-6" d="M584.84,417.47c-14.73,16.84-30.96,32.35-48.46,46.3-4.55,3.63-9.2,7.15-13.91,10.57-1.55,1.12-.05,3.73,1.51,2.59,17.74-12.86,34.4-27.18,49.67-42.9,4.56-4.7,9-9.51,13.31-14.44,1.27-1.45-.85-3.58-2.12-2.12h0Z"/>
          <path class="cls-6" d="M557.93,427.73c-12,15.72-24,31.43-36,47.15-1.17,1.53,1.43,3.03,2.59,1.51,12-15.72,24-31.43,36-47.15,1.17-1.53-1.43-3.03-2.59-1.51h0Z"/>
          <path class="cls-6" d="M535.42,473.83c9.48-3.1,18.79-6.89,27.7-11.37,5.54-2.78,10.89-5.89,15.94-9.49,5.13-3.67,9.99-7.71,14.79-11.79,7.64-6.49,15.16-13.12,22.72-19.69,9.4-8.16,18.82-16.29,28.27-24.38,1.47-1.26-.66-3.37-2.12-2.12-16.24,13.92-32.3,28.04-48.53,41.97-8.81,7.56-17.72,14.91-27.95,20.49s-20.74,9.95-31.63,13.5c-1.83.6-1.05,3.49.8,2.89h0Z"/>
          <path class="cls-6" d="M523.04,474.14c-.07.01-.14.03-.21.05-.2.05-.37.14-.51.27-.16.11-.29.25-.39.42-.11.17-.17.36-.18.56-.04.2-.04.4.03.6l.15.36c.13.23.31.4.54.54l.36.15c.27.07.53.07.8,0,.07-.01.14-.03.21-.05.2-.05.37-.14.51-.27.16-.11.29-.25.39-.42.11-.17.17-.36.18-.56.04-.2.04-.4-.03-.6l-.15-.36c-.13-.23-.31-.4-.54-.54l-.36-.15c-.27-.07-.53-.07-.8,0h0Z"/>
          <path class="cls-6" d="M661.55,376.53c5.75-3.36,10.82-8.06,13.59-14.21.33-.74.21-1.61-.54-2.05-.64-.38-1.72-.2-2.05.54-2.57,5.71-7.11,9.98-12.51,13.13-1.67.97-.16,3.57,1.51,2.59h0Z"/>
          <path class="cls-6" d="M507.08,449.76c5.89,6.6,11.78,13.19,17.68,19.79.84.94,1.67,1.87,2.51,2.81,1.29,1.44,3.4-.68,2.12-2.12-5.89-6.6-11.78-13.19-17.68-19.79-.84-.94-1.67-1.87-2.51-2.81-1.29-1.44-3.4.68-2.12,2.12h0Z"/>
          <path class="cls-6" d="M528.94,440.23c-.63,8.89-1.26,17.79-1.88,26.68-.09,1.26-.18,2.52-.27,3.78-.14,1.93,2.86,1.92,3,0,.63-8.89,1.26-17.79,1.88-26.68.09-1.26.18-2.52.27-3.78.14-1.93-2.86-1.92-3,0h0Z"/>
          <path class="cls-2" d="M746.33,1120.65c-8.09,14.83-21.15,21.16-25.67,23.11-35.46-149.58-70.88-259.9-97.43-334.57-10.81-30.4-28.42-78.17-49.89-147.69-7.32-23.73-13.94-46.27-19.9-67.39-3.17-11.21-6.14-22.01-8.95-32.38-.21-.78-.41-1.54-.63-2.32-8.76-32.58-15.74-60.79-21.11-83.56.23-.08.46-.17.69-.26h.01c2.45-.59,5.87-1.46,9.91-2.68,0,0,.59-.18,1.66-.52,10.1,27.55,19.28,53,27.44,75.91.7,1.94,1.37,3.86,2.05,5.76,3.86,10.87,7.49,21.15,10.87,30.77,5.58,15.92,10.49,30.08,14.68,42.25,94.62,274.48,105.32,311.17,126.24,365.83,13.44,35.1,24.8,63.5,31.97,81.21,1.25,2.99,9.89,24.83-1.94,46.53Z"/>
          <path class="cls-6" d="M534.62,470.93c-2.07.67-4.15,1.27-6.25,1.84-1.07.29-2.14.57-3.21.84-.46.12-.93.23-1.39.34-.21.05-.43.09-.64.15-.06.02-.54.21-.38.14.18-.07-.41.15-.4.14l1.85,1.05c-.31-1.3-.62-2.6-.92-3.91-.12-.5-.56-.91-1.05-1.05h-.01c.35.35.7.7,1.05,1.04l-.05-.24-1.05,1.85c1.99-.74,3.98-1.46,5.96-2.21,1.82-.68,3.63-1.42,5.47-2.03l-1.85-1.05c.35.96.7,1.92,1.05,2.88.07.18.14.36.21.54.12.3.41.65.04.12.25.36.36.98.52,1.38.29.76,1.01,1.28,1.85,1.05.72-.2,1.34-1.09,1.05-1.85-.18-.46-.34-.92-.52-1.38-.01-.07-.04-.14-.08-.2-.11-.27-.1-.24.04.09,0,0-.2-.52-.21-.54-.35-.96-.7-1.92-1.05-2.88-.27-.73-1.02-1.32-1.85-1.05-1.84.61-3.66,1.34-5.47,2.03-1.98.75-3.98,1.47-5.96,2.21-.79.29-1.23.99-1.05,1.85l.05.24c.11.5.56.91,1.05,1.05h.01c-.35-.35-.7-.7-1.05-1.04.3,1.3.61,2.6.92,3.91.18.75,1.1,1.31,1.85,1.05.32-.11.72-.37,1.04-.41-.15.02-.27.1-.03.07.11-.01.22-.05.32-.08.46-.11.92-.22,1.38-.34,1.1-.28,2.2-.57,3.3-.87,2.09-.57,4.18-1.18,6.25-1.84.77-.25,1.27-1.04,1.05-1.85-.21-.76-1.07-1.3-1.85-1.05Z"/>
        </g>
        <g>
          <path class="cls-1" d="M841.43,272.72c-14.99,2.04-32.03,5.18-50.49,10.12-6.08,1.62-12.32,3.44-18.69,5.49-.65.2-1.3.41-1.94.62-3.07.96-6.17,1.99-9.3,3.07-38.18,13.11-68.82,29.75-91.59,44.42-2.22-3.07-5.51-7.52-9.64-12.77-28.66-36.45-56.4-58.92-79.19-77.04-60.5-48.09-99.46-76.1-99.91-75.49-.72.97,106.38,58.62,168.3,179.56.89,1.73,1.65,3.25,2.26,4.49-1.67.44-3.35.89-5.02,1.34-55.82,14.87-115.49,33.24-178.06,56.07-33.71,12.3-65.89,25.02-96.52,37.96-9.8,4.12-19.44,8.28-28.9,12.44-3.19,1.4-6.35,2.8-9.49,4.21.08-2.62.15-5.17.21-7.62.28-11.32.24-20.29.22-23.61,0-.71,0-1.23-.01-1.33-.04-4.82-.17-51.87,2.5-97.02,2.98-50.24,10.96-123.96,12.51-123.83,2.63.22-28.95,211.97-29.39,213.58-.02.09-.3,1.09-.67,2.46-1.03,3.82-3.06,11.54-5.31,21.24-1.47,6.32-3.02,13.28-4.65,20.89-8.32,2.5-16.99,5.29-26.02,8.42h-.01c-23.96,8.27-50.24,18.87-77.91,32.53-8.83,4.35-17.33,8.79-25.49,13.27-26.99,14.78-50.35,29.99-70.09,44.22-17.87-225.61,178.12-333,273.52-371.64,30.25-12.25,50.39-17.59,50.39-17.59,35.86-9.91,84.19-18.57,140.95-15.52,134.98,7.24,229.62,75.97,267.43,107.07Z"/>
          <path class="cls-4" d="M770.3,288.96c-15.86,5.17-32.5,11.69-49.56,19.95-19.07,9.23-35.79,19.21-50.22,29.02-.37-.5-.74-1-1.11-1.49,22.77-14.67,53.4-31.31,91.59-44.42,3.13-1.08,6.24-2.1,9.3-3.07Z"/>
          <path class="cls-2" d="M323.5,513.17c-30.41,12.89-63.8,28.97-98.9,49.09-32.95,18.88-62.12,38.29-87.58,56.97-.42.31-.83.62-1.26.93-3.57,2.63-7.08,5.26-10.51,7.86-.03-.02-.05-.05-.08-.07h-.01c-3.76-3.26-15.64-14.37-18.37-32.75-1.63-10.95.65-19.9,2.32-24.8h.01c19.74-14.24,43.09-29.45,70.09-44.23,8.16-4.48,16.66-8.91,25.49-13.27,27.67-13.66,53.95-24.26,77.91-32.54h.01c9.03-3.13,17.7-5.92,26.02-8.41.04-.01.06-.02.1-.03,2.64,1.55,7.83,5.01,11.79,11.26.47.74.93,1.53,1.35,2.35,6.71,12.79,2.45,25.31,1.61,27.64Z"/>
          <path class="cls-2" d="M662.3,388.28c-7.84,3.19-15.72,6.37-23.63,9.55-8.65,3.47-17.34,6.94-26.07,10.4-8.23,3.27-16.5,6.53-24.8,9.79-10.76,4.21-21.57,8.43-32.45,12.64-8.26,3.19-16.56,6.37-24.9,9.58-7.41,2.82-14.84,5.64-22.3,8.47-3,1.12-6.01,2.27-9.03,3.4-5.71,2.14-11.4,4.28-17.08,6.4h-.02s-.01,0-.01,0c-10.15,3.78-20.24,7.54-30.32,11.25-9.81,3.6-19.55,7.17-29.28,10.7,0,.01-.01,0-.01,0h-.01c-8.29,3-16.56,5.98-24.81,8.94-19.3,6.91-38.47,13.69-57.52,20.31-2.35-2.62-8-9.6-9.69-20.37-.3-1.89-.44-3.71-.46-5.45-.15-7.97,2.17-14.04,3.34-16.69,3.14-1.41,6.3-2.8,9.49-4.21,9.47-4.17,19.11-8.32,28.9-12.44,30.63-12.94,62.81-25.65,96.52-37.96,62.57-22.82,122.24-41.2,178.06-56.07,1.67-.45,3.35-.9,5.02-1.34.03,0,.04-.01.06-.02,2.02,2.66,4.19,6.02,6.07,10.12,1.59,3.46,2.69,6.81,3.43,9.94h0c1.23,5.16,1.51,9.69,1.51,13.05Z"/>
          <path class="cls-2" d="M870.75,340.53s-.06-.04-.09-.06c-2.97-1.91-6.56-4.03-10.76-6.08-3.09-1.51-6.51-3-10.24-4.34-4.49-1.6-9.41-3-14.74-4.01-9.15-1.71-28.08-3.87-71.08,11.23-19.76,6.93-46.76,18.27-76.79,37.1-1.81-.99-8.53-4.91-13.39-12.42-1.79-2.74-3.32-5.97-4.26-9.73-1.66-6.61-.88-12.32-.09-15.72.03-.02.06-.04.1-.06.37.49.75.99,1.11,1.49,14.43-9.81,31.15-19.79,50.22-29.02,17.06-8.26,33.69-14.78,49.56-19.95.65-.21,1.3-.42,1.94-.62,6.45-2.01,12.76-3.8,18.9-5.42,18.59-4.87,35.74-8.01,50.86-10.03,5.39,3.76,14.49,11.21,21.24,23.64,10.39,19.11,8.49,37.53,7.51,44.01Z"/>
          <path class="cls-4" d="M770.3,288.96c-15.86,5.17-32.5,11.69-49.56,19.95-19.07,9.23-35.79,19.21-50.22,29.02-.37-.5-.74-1-1.11-1.49,22.77-14.67,53.4-31.31,91.59-44.42,3.13-1.08,6.24-2.1,9.3-3.07Z"/>
        </g>
      </g>
    </g>
  </g>
</svg>