<?xml version="1.0" encoding="UTF-8"?>
<svg id="Camada_9" data-name="Camada 9" xmlns="http://www.w3.org/2000/svg" viewBox="0 0 1080 1350">
  <defs>
    <style>
      .cls-1 {
        fill: #006837;
      }

      .cls-2 {
        fill: #fd7f00;
      }
    </style>
  </defs>
  <g>
    <path class="cls-2" d="M388.01,643.51c-3.37,0-6.22-1.04-8.03-2.85-1.04-3.89-2.59-9.85-4.41-17.62-2.33-10.62-5.18-27.73-8.55-51.31-2.85-22.54-5.96-39.65-8.81-51.31l-1.3.26c-5.18,25.65-20.47,94.32-29.54,94.32-.78,0-2.07-1.55-4.4-4.66-7-9.33-18.4-37.31-23.58-51.82-1.81-5.44-4.66-13.73-10.62-25.91-1.3,2.85-3.63,18.66-7.25,47.94-1.81,15.55-4.41,37.05-8.55,55.71-1.81,1.81-5.18,2.59-9.59,2.59-8.81,0-13.21-2.85-13.21-8.29,0,.52.52-1.81,1.3-7.26l2.85-17.88c2.33-13.73,5.7-33.95,10.11-61.15,4.41-26.17,9.59-53.38,16.07-60.38,2.85.26,6.22.78,10.62,1.81,3.37,1.81,6.48,5.96,8.81,12.7,1.04,2.33,2.59,6.22,4.92,11.14l10.62,25.13c1.3,2.33,2.85,5.96,4.66,10.88l6.22,20.99c10.36-46.38,18.4-80.33,25.65-83.18.26.26,2.59,1.3,6.74,2.85,5.18,2.33,5.44,3.11,9.33,12.44,6.74,15.81,12.18,35.76,16.32,59.86,3.63,15.81,8.55,39.9,15.03,71.78l.52,2.85c0,6.22-5.44,10.36-11.92,10.36Z"/>
    <path class="cls-2" d="M509.01,650.25c-10.62,0-11.14-7.77-11.4-23.32v-11.4c0-24.62.78-32.91-9.59-36.28-1.55-.52-6.48-.78-14.77-.78-25.65,0-31.09.78-31.35,21.25,0,1.3-.26,3.63-.52,6.74s-.52,5.44-.52,7c0,.52,0,1.3.26,2.59v2.85c0,2.33,0,5.96-.26,10.88-.26,4.92-.52,8.55-.52,10.88,0,.78,0,1.81.26,3.11v3.37c0,4.15-2.59,6.22-7.77,6.22s-11.92-2.85-11.92-7.77v-20.21c-.26-9.07-.26-15.81-.26-20.21,0-20.47,0-27.99.78-55.19.52-8.55,3.11-19.69,8.03-33.17,1.3-4.4,3.37-9.33,6.22-15.29,7-8.55,12.7-8.03,36.79-8.03h3.11c6.48,0,11.14,1.04,13.99,2.85,15.55,10.11,18.66,26.69,20.73,53.38l3.89,41.2c1.55,16.58,2.33,30.32,2.33,41.46s-.26,17.88-7.52,17.88ZM485.69,518.36c-2.33-7.51-10.88-8.03-17.88-8.03-22.54,0-28.5,43.27-28.5,46.38,0,3.37,4.41,4.92,13.47,4.92h6.74c1.81,0,4.41-.26,7.77-1.04,3.37-.52,5.96-.78,7.77-.78,1.3,0,3.11.26,5.7.52,2.33.26,4.15.52,5.44.52,4.92,0,7.26-3.11,7.26-9.59,0-5.44-2.59-16.58-7.77-32.91Z"/>
    <path class="cls-2" d="M644.53,517.32c-1.3,0-3.63-.26-6.48-.78-3.11-.52-5.44-.78-7-.78h-24.88c-2.85,18.92-4.41,37.31-4.41,55.19,0,4.92.26,11.92.52,21.25.26,9.33.26,16.33.26,20.99,0,17.1-.52,27.21-1.56,30.32-4.41,2.33-9.33,3.37-14.77,3.37s-7.77-1.56-7.77-4.66c0-48.97,1.3-88.36,3.89-117.64,0-.78.26-2.07.52-3.89.26-1.81.52-3.37.52-4.41,0-.78-1.3-1.3-3.63-1.3-3.89,0-9.59.52-17.1,1.81-7.52,1.3-13.22,1.81-17.1,1.81-3.11,0-4.92-.52-5.18-1.3v-.78c0-1.81,0-4.92-.26-8.81-.26-3.89-.52-6.74-.52-8.55,0-5.18,3.37-7.77,9.85-7.77.78,0,1.81.26,3.63.78,1.55.52,2.59.78,3.37.78,4.66.52,9.59.78,15.03.78,6.48,0,15.81-.52,28.24-1.3,12.44-.78,21.77-1.04,27.99-1.04,11.92,0,18.91.52,20.73,1.81,1.04.78,1.55,3.63,1.55,8.81,0,10.11-1.81,15.29-5.44,15.29Z"/>
    <path class="cls-2" d="M761.39,594.8c-12.44,1.3-18.92,1.81-19.69,1.81l-39.13-2.59c-2.07-.26-3.11,4.66-3.11,14.77,0,2.59.26,5.96.52,10.36l.52,10.36h22.54c16.33,0,26.69-.52,30.84-1.3l4.92-.78,1.04-.26c1.04,0,2.07,1.04,3.11,3.37-.78,5.18-1.3,9.85-1.3,13.99-5.44,1.81-12.44,2.85-20.99,2.85-2.85,0-7.26-.26-12.96-.52-5.96-.26-10.36-.26-13.21-.26-5.44,0-10.11.26-14.25,1.04-5.18.78-7.25,1.3-5.96,1.3-13.73,0-17.1-2.33-17.88-15.81-.26-19.43-1.55-48.97-3.89-88.1,0-.78-.52-3.63-1.3-8.55-.52-4.15-.78-7-.78-8.29,0-8.03,5.96-19.17,13.21-19.17h.78c.26.26.52.26.78.26.26-.26.78-.26,1.55-.26h.26c1.3.26,3.37.26,5.96.26,3.63,0,9.07-.26,16.07-.52,7-.26,12.18-.26,15.55-.26,15.81,0,26.43,1.56,31.87,4.66.26,1.3.26,2.85.26,4.92,0,3.37-.52,5.96-1.55,7.77-8.29,2.85-23.32,4.15-45.09,4.15h-12.7c.52,6.48,1.3,16.07,2.07,28.76,1.04,13.47,4.15,16.07,16.84,16.07h5.96c3.63,0,10.62-.26,20.73-.78,6.74-.26,9.85-.52,9.07-.52h3.89c1.81.26,2.85.26,3.63.26,2.85,2.85,4.41,5.44,4.41,8.29s-.78,7-2.59,12.7Z"/>
    <path class="cls-2" d="M214.53,869.95c-8.03,0-13.47-.78-15.81-2.07-29.28-17.1-44.05-39.65-44.05-67.37,0-19.43,6.48-38.35,19.69-56.23,11.14-14.77,30.58-25.13,48.97-25.13,9.07,0,16.32,2.33,22.28,7v3.11c0,9.59-9.07,11.66-25.91,13.47-7.52.78-12.44,2.07-14.77,3.37-15.55,9.33-24.88,32.91-24.88,52.6,0,17.88,5.7,31.87,17.36,42.5,8.55,8.03,36.28,7.51,49.49,7.77,0,.26,0,.78.26,1.55v1.81c0,15.55-13.99,17.62-32.65,17.62Z"/>
    <path class="cls-2" d="M355.49,868.66c-10.62,0-11.14-7.77-11.4-23.32v-11.4c0-24.62.78-32.91-9.59-36.28-1.55-.52-6.48-.78-14.77-.78-25.65,0-31.09.78-31.35,21.25,0,1.3-.26,3.63-.52,6.74-.26,3.11-.52,5.44-.52,7,0,.52,0,1.3.26,2.59v2.85c0,2.33,0,5.96-.26,10.88s-.52,8.55-.52,10.88c0,.78,0,1.81.26,3.11v3.37c0,4.15-2.59,6.22-7.77,6.22s-11.92-2.85-11.92-7.77v-20.21c-.26-9.07-.26-15.81-.26-20.21,0-20.47,0-27.98.78-55.19.52-8.55,3.11-19.69,8.03-33.17,1.3-4.41,3.37-9.33,6.22-15.29,7-8.55,12.7-8.03,36.79-8.03h3.11c6.48,0,11.14,1.04,13.99,2.85,15.55,10.11,18.66,26.69,20.73,53.38l3.89,41.2c1.55,16.58,2.33,30.32,2.33,41.46s-.26,17.88-7.52,17.88ZM332.17,736.77c-2.33-7.51-10.88-8.03-17.88-8.03-22.54,0-28.5,43.27-28.5,46.38,0,3.37,4.41,4.92,13.47,4.92h6.74c1.81,0,4.41-.26,7.77-1.04,3.37-.52,5.96-.78,7.77-.78,1.3,0,3.11.26,5.7.52,2.33.26,4.15.52,5.44.52,4.92,0,7.26-3.11,7.26-9.59,0-5.44-2.59-16.58-7.77-32.91Z"/>
    <path class="cls-2" d="M504.48,840.16c-.26,3.37-4.15,5.18-11.66,5.18-15.29,0-55.71-11.14-75.4-46.12,0,2.59,0,6.48.26,11.66.26,5.18.26,9.07.26,11.66,0,32.13-5.44,48.2-16.07,48.2-5.7-3.63-8.55-7-8.55-10.11,0-5.96,0-15.03-.26-26.95-.26-11.92-.26-20.73-.26-26.69,0-18.14,1.3-36.79,3.63-56.23.78-2.85,1.04-5.18,1.3-6.48,0-.26.26-24.1,2.59-31.09,2.33-7,8.03-10.62,17.1-10.62,17.88,0,17.88,1.81,34.46,10.11,2.07.78,4.92,2.33,8.29,4.15,8.03,5.44,13.47,12.44,16.32,20.47.26.26.26.78.26,1.81,0,14.77-21.77,35.24-39.65,46.38,2.33,23.06,20.47,27.21,46.12,33.43,11.4,2.85,17.62,4.92,18.92,6.22,0,.78.52,2.85,1.3,6.22.78,3.63,1.04,5.7,1.04,6.48v2.33ZM423.12,723.29c-4.92,20.99-7.25,34.72-7.25,41.72,0,.26,0,.78.26,1.56v1.55c5.44-.26,26.69-12.44,30.84-16.84,2.85-2.85,4.15-6.22,4.15-9.85,0-10.11-15.81-17.1-27.99-18.14Z"/>
    <path class="cls-2" d="M544.38,816.32l-1.81,15.81c0,1.04.26,2.59.52,4.66s.26,3.63.26,4.66c0,11.14-5.7,16.58-16.84,16.58h-1.55c-.26-.26-.52-.52-.78-1.04-.52-.26-1.04-.52-1.3-.78-1.56-3.63-2.33-7.25-2.33-11.14,0-2.33.26-5.44,1.04-9.59.78-4.15,1.04-7.25,1.04-9.33v-15.81c0-18.66,1.81-40.94,5.7-66.85,2.07-3.11,9.59-3.63,14.77-3.89,3.11,2.85,4.66,9.33,4.66,18.92,0,2.85-.26,7-.52,11.92-.26,5.18-.52,8.55-.52,10.11,0,9.59-.78,21.51-2.33,35.76ZM535.83,725.11c-.26-.26-.78-.26-1.3-.52-.78,0-1.3,0-1.55-.26-4.41-4.92-6.74-9.59-6.74-14.51,0-8.03,6.48-14.25,14.51-14.25s12.18,5.44,12.18,16.07c-7.51,12.7-6.74,13.47-17.1,13.47Z"/>
    <path class="cls-2" d="M683.52,841.97c-7.51,19.69-25.65,31.35-63.74,31.35l-2.59-.52c-1.55-.26-2.33-.52-2.59-.52-24.62-5.96-43.01-27.98-43.01-61.93v-7c0-24.62,13.22-62.97,30.58-79.03,8.55-8.03,19.18-11.92,31.61-11.92,36.54,0,56.23,37.31,59.34,69.18,0,2.33,0,5.7.26,10.11l.52,5.18c0,8.55-6.48,35.5-10.36,45.09ZM664.61,753.87c-1.55-2.85-2.59-4.41-3.37-5.18-7.25-7.25-21.25-14.25-30.84-14.25-25.13,0-36.54,31.35-41.98,60.63-.26.78-.26,1.55-.26,2.59-.26,1.04-.26,1.81-.52,2.59,0,36.02,14.51,50.53,50.53,50.53,24.1,0,35.24-30.32,35.24-58.04,0-15.55-2.85-28.5-8.81-38.87Z"/>
    <path class="cls-2" d="M775.25,869.95c-8.03,0-13.47-.78-15.81-2.07-29.28-17.1-44.05-39.65-44.05-67.37,0-19.43,6.48-38.35,19.69-56.23,11.14-14.77,30.58-25.13,48.97-25.13,9.07,0,16.32,2.33,22.28,7v3.11c0,9.59-9.07,11.66-25.91,13.47-7.52.78-12.44,2.07-14.77,3.37-15.55,9.33-24.88,32.91-24.88,52.6,0,17.88,5.7,31.87,17.36,42.5,8.55,8.03,36.28,7.51,49.49,7.77,0,.26,0,.78.26,1.55v1.81c0,15.55-13.99,17.62-32.65,17.62Z"/>
    <path class="cls-2" d="M918.02,799.21c0,3.89.26,9.59.78,17.1.52,7.51.78,13.21.78,17.1,0,18.14-1.81,27.99-5.18,29.54-1.81.78-3.63,1.3-5.44,1.3-.78,0-1.56,0-2.85-.26h-2.85c-4.66-4.66-7-14.25-7-28.5,0-8.55.78-18.92,2.07-31.35,1.04-9.33,1.55-15.29,1.55-17.88-1.81-1.3-4.15-2.07-7-2.07-1.04,0-2.59.26-4.41.52-1.81.26-3.37.52-4.41.52-3.37,0-8.55-.52-15.55-1.3-7-.78-12.18-1.04-15.55-1.04h-2.33c-1.3.26-2.07.26-2.59.26-.26,8.03-.52,19.95-.78,35.76l-1.04,35.76c-2.59,5.96-6.22,8.81-11.14,8.81-5.96,0-10.36-4.66-10.36-10.62,0-1.81.26-3.37,1.04-4.66.78-29.02.26-72.81,10.36-135.78,4.15-6.48,20.99-9.59,50.79-9.59l-.26-.26c2.07.26,5.18.26,9.59-.52,3.89.26,19.18,3.63,22.02,4.92,2.59,1.81,4.66,5.44,6.22,11.14-4.41,44.83-6.48,72.04-6.48,81.1ZM882.52,720.96c-11.14,0-19.69.78-25.91,2.33-1.3,3.11-2.07,7.26-2.85,12.18-.78,5.7-1.3,9.59-2.07,11.92-.78,4.66-1.3,8.81-1.3,12.7,6.74.78,15.55,1.3,26.43,1.55,2.33,0,4.66.26,7.26.52l2.33.26,2.07.26h12.44c.26-3.37.52-9.85,1.3-19.95.78-8.03,1.04-14.77,1.04-19.69-2.59-1.3-9.59-2.07-20.73-2.07Z"/>
  </g>
  <g>
    <path class="cls-1" d="M385.35,636.81c-3.37,0-6.22-1.04-8.03-2.85-1.04-3.89-2.59-9.85-4.41-17.62-2.33-10.62-5.18-27.73-8.55-51.31-2.85-22.54-5.96-39.65-8.81-51.31l-1.3.26c-5.18,25.65-20.47,94.32-29.54,94.32-.78,0-2.07-1.56-4.4-4.66-7-9.33-18.4-37.31-23.58-51.82-1.81-5.44-4.66-13.73-10.62-25.91-1.3,2.85-3.63,18.66-7.25,47.94-1.81,15.55-4.41,37.05-8.55,55.71-1.81,1.81-5.18,2.59-9.59,2.59-8.81,0-13.21-2.85-13.21-8.29,0,.52.52-1.81,1.3-7.25l2.85-17.88c2.33-13.73,5.7-33.94,10.11-61.15,4.41-26.17,9.59-53.38,16.07-60.38,2.85.26,6.22.78,10.62,1.81,3.37,1.81,6.48,5.96,8.81,12.7,1.04,2.33,2.59,6.22,4.92,11.14l10.62,25.13c1.3,2.33,2.85,5.96,4.66,10.88l6.22,20.99c10.36-46.38,18.4-80.33,25.65-83.18.26.26,2.59,1.3,6.74,2.85,5.18,2.33,5.44,3.11,9.33,12.44,6.74,15.81,12.18,35.76,16.32,59.86,3.63,15.81,8.55,39.9,15.03,71.78l.52,2.85c0,6.22-5.44,10.36-11.92,10.36Z"/>
    <path class="cls-1" d="M506.35,643.55c-10.62,0-11.14-7.77-11.4-23.32v-11.4c0-24.62.78-32.91-9.59-36.28-1.55-.52-6.48-.78-14.77-.78-25.65,0-31.09.78-31.35,21.25,0,1.3-.26,3.63-.52,6.74-.26,3.11-.52,5.44-.52,7,0,.52,0,1.3.26,2.59v2.85c0,2.33,0,5.96-.26,10.88s-.52,8.55-.52,10.88c0,.78,0,1.81.26,3.11v3.37c0,4.15-2.59,6.22-7.77,6.22s-11.92-2.85-11.92-7.77v-20.21c-.26-9.07-.26-15.81-.26-20.21,0-20.47,0-27.99.78-55.19.52-8.55,3.11-19.69,8.03-33.17,1.3-4.41,3.37-9.33,6.22-15.29,7-8.55,12.7-8.03,36.79-8.03h3.11c6.48,0,11.14,1.04,13.99,2.85,15.55,10.11,18.66,26.69,20.73,53.38l3.89,41.2c1.55,16.58,2.33,30.32,2.33,41.46s-.26,17.88-7.52,17.88ZM483.03,511.66c-2.33-7.51-10.88-8.03-17.88-8.03-22.54,0-28.5,43.27-28.5,46.38,0,3.37,4.41,4.92,13.47,4.92h6.74c1.81,0,4.41-.26,7.77-1.04,3.37-.52,5.96-.78,7.77-.78,1.3,0,3.11.26,5.7.52,2.33.26,4.15.52,5.44.52,4.92,0,7.26-3.11,7.26-9.59,0-5.44-2.59-16.58-7.77-32.91Z"/>
    <path class="cls-1" d="M641.87,510.62c-1.3,0-3.63-.26-6.48-.78-3.11-.52-5.44-.78-7-.78h-24.88c-2.85,18.92-4.41,37.31-4.41,55.19,0,4.92.26,11.92.52,21.25.26,9.33.26,16.32.26,20.99,0,17.1-.52,27.21-1.56,30.32-4.41,2.33-9.33,3.37-14.77,3.37s-7.77-1.56-7.77-4.66c0-48.97,1.3-88.36,3.89-117.64,0-.78.26-2.07.52-3.89.26-1.81.52-3.37.52-4.4,0-.78-1.3-1.3-3.63-1.3-3.89,0-9.59.52-17.1,1.81-7.52,1.3-13.22,1.81-17.1,1.81-3.11,0-4.92-.52-5.18-1.3v-.78c0-1.81,0-4.92-.26-8.81s-.52-6.74-.52-8.55c0-5.18,3.37-7.77,9.85-7.77.78,0,1.81.26,3.63.78,1.55.52,2.59.78,3.37.78,4.66.52,9.59.78,15.03.78,6.48,0,15.81-.52,28.24-1.3,12.44-.78,21.77-1.04,27.99-1.04,11.92,0,18.91.52,20.73,1.81,1.04.78,1.55,3.63,1.55,8.81,0,10.11-1.81,15.29-5.44,15.29Z"/>
    <path class="cls-1" d="M758.73,588.1c-12.44,1.3-18.92,1.81-19.69,1.81l-39.13-2.59c-2.07-.26-3.11,4.66-3.11,14.77,0,2.59.26,5.96.52,10.36l.52,10.36h22.54c16.33,0,26.69-.52,30.84-1.3l4.92-.78,1.04-.26c1.04,0,2.07,1.04,3.11,3.37-.78,5.18-1.3,9.85-1.3,13.99-5.44,1.81-12.44,2.85-20.99,2.85-2.85,0-7.26-.26-12.96-.52-5.96-.26-10.36-.26-13.21-.26-5.44,0-10.11.26-14.25,1.04-5.18.78-7.25,1.3-5.96,1.3-13.73,0-17.1-2.33-17.88-15.81-.26-19.43-1.55-48.97-3.89-88.1,0-.78-.52-3.63-1.3-8.55-.52-4.15-.78-7-.78-8.29,0-8.03,5.96-19.17,13.21-19.17h.78c.26.26.52.26.78.26.26-.26.78-.26,1.55-.26h.26c1.3.26,3.37.26,5.96.26,3.63,0,9.07-.26,16.07-.52,7-.26,12.18-.26,15.55-.26,15.81,0,26.43,1.56,31.87,4.66.26,1.3.26,2.85.26,4.92,0,3.37-.52,5.96-1.55,7.77-8.29,2.85-23.32,4.15-45.09,4.15h-12.7c.52,6.48,1.3,16.07,2.07,28.76,1.04,13.47,4.15,16.07,16.84,16.07h5.96c3.63,0,10.62-.26,20.73-.78,6.74-.26,9.85-.52,9.07-.52h3.89c1.81.26,2.85.26,3.63.26,2.85,2.85,4.41,5.44,4.41,8.29s-.78,7-2.59,12.7Z"/>
    <path class="cls-1" d="M211.87,863.26c-8.03,0-13.47-.78-15.81-2.07-29.28-17.1-44.05-39.65-44.05-67.37,0-19.43,6.48-38.35,19.69-56.23,11.14-14.77,30.58-25.13,48.97-25.13,9.07,0,16.32,2.33,22.28,7v3.11c0,9.59-9.07,11.66-25.91,13.47-7.52.78-12.44,2.07-14.77,3.37-15.55,9.33-24.88,32.91-24.88,52.6,0,17.88,5.7,31.87,17.36,42.5,8.55,8.03,36.28,7.52,49.49,7.77,0,.26,0,.78.26,1.55v1.81c0,15.55-13.99,17.62-32.65,17.62Z"/>
    <path class="cls-1" d="M352.83,861.96c-10.62,0-11.14-7.77-11.4-23.32v-11.4c0-24.62.78-32.91-9.59-36.28-1.55-.52-6.48-.78-14.77-.78-25.65,0-31.09.78-31.35,21.25,0,1.3-.26,3.63-.52,6.74-.26,3.11-.52,5.44-.52,7,0,.52,0,1.3.26,2.59v2.85c0,2.33,0,5.96-.26,10.88-.26,4.92-.52,8.55-.52,10.88,0,.78,0,1.81.26,3.11v3.37c0,4.15-2.59,6.22-7.77,6.22s-11.92-2.85-11.92-7.77v-20.21c-.26-9.07-.26-15.81-.26-20.21,0-20.47,0-27.99.78-55.19.52-8.55,3.11-19.69,8.03-33.17,1.3-4.41,3.37-9.33,6.22-15.29,7-8.55,12.7-8.03,36.79-8.03h3.11c6.48,0,11.14,1.04,13.99,2.85,15.55,10.11,18.66,26.69,20.73,53.38l3.89,41.2c1.55,16.58,2.33,30.32,2.33,41.46s-.26,17.88-7.52,17.88ZM329.51,730.07c-2.33-7.52-10.88-8.03-17.88-8.03-22.54,0-28.5,43.27-28.5,46.38,0,3.37,4.41,4.92,13.47,4.92h6.74c1.81,0,4.41-.26,7.77-1.04,3.37-.52,5.96-.78,7.77-.78,1.3,0,3.11.26,5.7.52,2.33.26,4.15.52,5.44.52,4.92,0,7.26-3.11,7.26-9.59,0-5.44-2.59-16.58-7.77-32.91Z"/>
    <path class="cls-1" d="M501.82,833.46c-.26,3.37-4.15,5.18-11.66,5.18-15.29,0-55.71-11.14-75.4-46.12,0,2.59,0,6.48.26,11.66.26,5.18.26,9.07.26,11.66,0,32.13-5.44,48.2-16.07,48.2-5.7-3.63-8.55-7-8.55-10.11,0-5.96,0-15.03-.26-26.95-.26-11.92-.26-20.73-.26-26.69,0-18.14,1.3-36.79,3.63-56.23.78-2.85,1.04-5.18,1.3-6.48,0-.26.26-24.1,2.59-31.09,2.33-7,8.03-10.62,17.1-10.62,17.88,0,17.88,1.81,34.46,10.11,2.07.78,4.92,2.33,8.29,4.15,8.03,5.44,13.47,12.44,16.32,20.47.26.26.26.78.26,1.81,0,14.77-21.77,35.24-39.65,46.38,2.33,23.06,20.47,27.21,46.12,33.43,11.4,2.85,17.62,4.92,18.92,6.22,0,.78.52,2.85,1.3,6.22.78,3.63,1.04,5.7,1.04,6.48v2.33ZM420.46,716.59c-4.92,20.99-7.25,34.72-7.25,41.72,0,.26,0,.78.26,1.55v1.56c5.44-.26,26.69-12.44,30.84-16.84,2.85-2.85,4.15-6.22,4.15-9.85,0-10.11-15.81-17.1-27.99-18.14Z"/>
    <path class="cls-1" d="M541.72,809.62l-1.81,15.81c0,1.04.26,2.59.52,4.66s.26,3.63.26,4.66c0,11.14-5.7,16.58-16.84,16.58h-1.55c-.26-.26-.52-.52-.78-1.04-.52-.26-1.04-.52-1.3-.78-1.56-3.63-2.33-7.25-2.33-11.14,0-2.33.26-5.44,1.04-9.59.78-4.15,1.04-7.25,1.04-9.33v-15.81c0-18.66,1.81-40.94,5.7-66.85,2.07-3.11,9.59-3.63,14.77-3.89,3.11,2.85,4.66,9.33,4.66,18.91,0,2.85-.26,7-.52,11.92-.26,5.18-.52,8.55-.52,10.11,0,9.59-.78,21.51-2.33,35.76ZM533.17,718.41c-.26-.26-.78-.26-1.3-.52-.78,0-1.3,0-1.55-.26-4.41-4.92-6.74-9.59-6.74-14.51,0-8.03,6.48-14.25,14.51-14.25s12.18,5.44,12.18,16.07c-7.51,12.7-6.74,13.47-17.1,13.47Z"/>
    <path class="cls-1" d="M680.86,835.27c-7.51,19.69-25.65,31.35-63.74,31.35l-2.59-.52c-1.55-.26-2.33-.52-2.59-.52-24.62-5.96-43.01-27.99-43.01-61.93v-7c0-24.62,13.22-62.97,30.58-79.03,8.55-8.03,19.18-11.92,31.61-11.92,36.54,0,56.23,37.31,59.34,69.18,0,2.33,0,5.7.26,10.11l.52,5.18c0,8.55-6.48,35.5-10.36,45.09ZM661.95,747.17c-1.55-2.85-2.59-4.41-3.37-5.18-7.25-7.25-21.25-14.25-30.84-14.25-25.13,0-36.54,31.35-41.98,60.63-.26.78-.26,1.55-.26,2.59-.26,1.04-.26,1.81-.52,2.59,0,36.02,14.51,50.53,50.53,50.53,24.1,0,35.24-30.32,35.24-58.04,0-15.55-2.85-28.5-8.81-38.87Z"/>
    <path class="cls-1" d="M772.58,863.26c-8.03,0-13.47-.78-15.81-2.07-29.28-17.1-44.05-39.65-44.05-67.37,0-19.43,6.48-38.35,19.69-56.23,11.14-14.77,30.58-25.13,48.97-25.13,9.07,0,16.32,2.33,22.28,7v3.11c0,9.59-9.07,11.66-25.91,13.47-7.52.78-12.44,2.07-14.77,3.37-15.55,9.33-24.88,32.91-24.88,52.6,0,17.88,5.7,31.87,17.36,42.5,8.55,8.03,36.28,7.52,49.49,7.77,0,.26,0,.78.26,1.55v1.81c0,15.55-13.99,17.62-32.65,17.62Z"/>
    <path class="cls-1" d="M915.36,792.52c0,3.89.26,9.59.78,17.1.52,7.52.78,13.22.78,17.1,0,18.14-1.81,27.99-5.18,29.54-1.81.78-3.63,1.3-5.44,1.3-.78,0-1.56,0-2.85-.26h-2.85c-4.66-4.66-7-14.25-7-28.5,0-8.55.78-18.92,2.07-31.35,1.04-9.33,1.55-15.29,1.55-17.88-1.81-1.3-4.15-2.07-7-2.07-1.04,0-2.59.26-4.41.52-1.81.26-3.37.52-4.41.52-3.37,0-8.55-.52-15.55-1.3-7-.78-12.18-1.04-15.55-1.04h-2.33c-1.3.26-2.07.26-2.59.26-.26,8.03-.52,19.95-.78,35.76l-1.04,35.76c-2.59,5.96-6.22,8.81-11.14,8.81-5.96,0-10.36-4.66-10.36-10.62,0-1.81.26-3.37,1.04-4.66.78-29.02.26-72.81,10.36-135.78,4.15-6.48,20.99-9.59,50.79-9.59l-.26-.26c2.07.26,5.18.26,9.59-.52,3.89.26,19.18,3.63,22.02,4.92,2.59,1.81,4.66,5.44,6.22,11.14-4.41,44.83-6.48,72.04-6.48,81.1ZM879.86,714.26c-11.14,0-19.69.78-25.91,2.33-1.3,3.11-2.07,7.26-2.85,12.18-.78,5.7-1.3,9.59-2.07,11.92-.78,4.66-1.3,8.81-1.3,12.7,6.74.78,15.55,1.3,26.43,1.55,2.33,0,4.66.26,7.26.52l2.33.26,2.07.26h12.44c.26-3.37.52-9.85,1.3-19.95.78-8.03,1.04-14.77,1.04-19.69-2.59-1.3-9.59-2.07-20.73-2.07Z"/>
  </g>
</svg>