<?xml version="1.0" encoding="UTF-8"?>
<svg id="Camada_9" data-name="Camada 9" xmlns="http://www.w3.org/2000/svg" viewBox="0 0 1080 1350">
  <defs>
    <style>
      .cls-1 {
        fill: #fff;
      }

      .cls-2 {
        fill: #006837;
      }
    </style>
  </defs>
  <path class="cls-2" d="M484.08,307.93c21.23,24.33,27.27,59.68,28.9,91.03,3.1,59.68-17.91,119.05-46.76,170.3,9.56,28.41,16.07,55.74,15.01,86.03-1.11,32-8.01,67.82-28.14,93.43-13.79,17.54-29.91,34.26-45.6,50.08-1.54,20.5-3.02,41.1-3.99,61.66-2.06,43.56,3.45,92.27-27.35,127.45-11.15,12.74-19.54,15.64-35.65,19.42-33.17,7.78-72.16,8.14-105.59,2.04-48.3-8.82-58.3-67.54-59.4-108.37-.68-25.28,2.84-50.01,4.8-75.08,2.41-30.83,3.04-61.77,4.33-92.67-10.4-28.1-16.24-57.98-16.11-88.1.12-29.09.47-54.67,13.94-81.16,3.6-7.09,6.54-8.56,7.2-17.27,1.75-22.83-.5-47.45,1.1-70.41,5.81-83.39,73.68-172.06,155.73-192.36,41.36-10.23,107.41-10.57,137.56,23.98h.02,0ZM463.38,559.01c5.85-12.31,12.22-24.34,17.45-36.95,22.49-54.17,35.54-126.1,13.07-182.19-17.73-44.27-51.21-53.25-95.98-53.94-107.34-1.66-187.09,88.76-199.36,190.61l-1.13,64.94c9.63-8.88,19.48-17.61,29.56-26.01,32.94-27.43,71.67-57.41,108.94-78.47,3.58-2.03,18.17-8.33,19.88-10.04,1.08-1.08,2.9-6.08,4.09-8.02,6.16-10.03,20.47-28.05,30.35-34.19,13.92-8.65,22.21,7.19,19.4,19.41-2.08,9.02-10.06,12.5-14.52,19.75-1.12,1.82-5.45,9.7-4.99,11.28,25.46,30.25,46.95,64.66,63.1,100.83,3.11,6.98,5.53,15.36,8.81,22,.33.67-.21,1.13,1.33.99h0ZM407.43,464.15c-6.97-9.83-14.04-19.57-22.04-28.62,2.09-4.78,3.97-10.2,6.84-14.57,4.11-6.28,11.92-10.08,13.67-17.9s-2.57-20.92-12.77-15.42c-7.58,4.08-23.65,23.21-28.34,30.86-1.56,2.54-4.72,10.17-6.03,11.44-1.51,1.47-12.41,6.05-15.37,7.68-43.55,24.05-90.05,59.54-127.47,92.42-25.77,22.64-45.72,54.98-42.51,91,.06.63,0,1.94.89,1.88,12.15-15.99,26.72-30.3,41.69-43.68,38.98-34.84,91.89-71.37,138.21-95.69,1.68-.88,7.22-4.1,8.64-3.69l73.65,145.32c16.44,35.63,27.69,77.46,13.44,115.86l-4.9,10.67c24.98-26.45,31.89-66.76,32.33-102.05.77-61.52-34.93-136.17-69.94-185.51h0ZM400.57,744.95c.92-.92,1.78-1.87,2.83-2.65,3.63-20.7,3.92-42.13,9.05-62.6,4.73-18.9,13.13-37.34,18.66-56.02l-70.72-138.81c-20.34,11.23-40.38,22.97-59.84,35.68-28.5,18.62-57.86,39.93-83.11,62.75-2.84,2.56-12.74,11.09-14.24,13.51-4.85,7.82-3.14,30.22-1.52,39.53,6.21,35.73,28.54,59.43,43.12,91.1,8.13,17.66,23.25,54.31,2.51,68.15-18.2,12.14-33.11-9.3-41.99-22.59-4.61-6.89-7.95-14.44-12.23-21.46-.35-.57.15-1.18-1.37-.97.17.78.47,1.43.4,2.28-2.6,32.25-1.54,65.02-5.53,97.16-5.78,46.59-9.48,141.46,52.38,152.11,31.38,5.4,69.6,4.86,100.52-2.67,15.93-3.88,22.66-6.61,33.1-19.72,22.41-28.15,21.75-64.77,22.07-98.94l4.15-74.28c-12.27,8.97-32.14,23.79-48.07,16.85-8.37-3.65-11.09-12.89-9.68-21.37,3.99-24,42.98-40.51,59.51-57.04h0ZM197.27,603.61c-1.36-.25-2.92,1.92-3.84,2.84-5.17,5.2-12.01,15.51-16.87,19.51-1.21,1-3.2.5-3.56,2.32-2.88,49.54,8.12,101.25,35.77,142.71,8.03,12.05,23.53,34.83,39.19,18.83,14.19-14.49-.96-48.5-8.41-64.03-11.88-24.76-29.42-45.75-37.69-72.21-5.01-16.03-7.5-33.22-4.61-49.97h.02,0ZM412.52,733.67c1.22.47,1.3-.37,1.92-.86,4.14-3.23,9.18-8.25,13.15-11.95,6.59-6.14,17.64-15.64,22.99-22.24.58-.71.96-1.21,1.22-2.14,1.25-4.54-2.22-21.39-3.48-26.74-2.76-11.76-7.01-24.07-12.26-34.93-3.57,8.92-6.81,18.07-9.78,27.21-4.19,12.9-7.89,25.33-9.94,38.75-1.67,10.89-2.23,22.01-3.82,32.92v-.02h0ZM360.79,779.68c-9.09,7.93-20.05,20.56-14.8,33.53,6.8,16.79,32.28,3.08,42.12-3.72,19.93-13.78,36.68-34.22,52.46-52.42.3-.92-1.09-2.06-1.2-3.24-.13-1.51,5.19-10.39,6.29-13.03,4.96-12.04,6.55-25.12,6.72-38.05-21.81,20.06-42.72,41.4-66.47,59.23-8.14,6.12-17.49,11.06-25.12,17.71h0Z"/>
  <path class="cls-2" d="M836.44,378.29c61.6,59.29,75.05,169.47,38.88,245.44-12.87,27.04-28.1,53.11-41,80.17,3.41,30.13-2.25,62.69-22.01,86.47-5.53,6.65-10.9,12.9-16.31,19.69-10.07,12.63-20.16,24.65-32.23,35.47-29.79,53.24-48.05,114.58-80.25,166.09-18.8,30.08-47.84,64.72-87.83,56.84-32.51-6.41-87.29-38.83-109.71-63.38-26.09-28.56-14.51-71.24.96-102.12,19.78-39.49,38.9-79.42,56.39-120.08-2.47-13.67-1.32-28.67-2.96-42.17-.45-3.68-2.18-7.84-2.82-11.68-6.39-38.64,14.94-87.01,37.65-117.64,2.9-3.92,16.3-18,17.18-20.79,2-6.36-.71-22.45-.9-29.95-1-39.65,6.49-87.86,20.41-125,20.45-54.55,72.43-124.98,139.42-106.23,30.19,8.45,62.61,27.21,85.14,48.9v-.03h0ZM832.55,690.25l36.19-71.17c41.28-93.65,14.4-213.22-78-264.65-43.12-24-79.02-30.62-118.39,3.73-49.81,43.47-69.58,117.58-72.69,181.5-.68,14,.27,27.92.93,41.87,32.4-33.92,69.02-63.94,109.94-87.1,2.15-1.21,10.04-4.55,11.03-5.84,1.48-1.92,1.5-9.93,1.38-12.76-.34-8.01-4.88-14.55-4.15-22.67,1-11.26,14.48-24.5,24.62-13.79,5.67,5.99,11.63,32.5,12.39,41.21.29,3.3-.33,14.14.13,15.55,1.01,3.09,9.58,14.75,11.96,18.95,24.99,44.07,43.11,100.29,57.04,149.06,2.29,8.03,3.96,17.34,6.41,25.07.19.6.03,1.98,1.22,1.05h0ZM800.78,795.94c10.75-8.56,19.16-22.5,23.88-35.4,14.54-39.68,1.86-78.54-9.85-116.82-12.79-41.86-29.39-90.3-51.27-128.12-2.11-3.65-10.82-15.65-11.51-18.14s.4-5.21.34-7.8c-.3-12.21-4.3-34.6-10.27-45.2-6.3-11.19-17.17-1.71-18.9,7.37-1.69,8.85,3.11,14.27,3.68,22.63.19,2.82-.2,15.16-1.48,16.81-52.18,27.05-100.07,65.84-137.63,111.09-27.2,32.77-54.42,84.73-45.91,128.46.38,1.94.91,5.16,2.28,6.6.08-30.25,18.97-57.45,39.33-78.19,13.05-13.3,27.5-23.44,41.62-35.32,33.29-28,66.33-56.24,99.48-84.4l1.67-.26c48.46,75.17,84.35,165.41,74.55,256.69h-.01ZM745.77,859.79c-13.58,8.54-50.86,34.53-63.38,13.79-9.71-16.08,11.75-33.21,23.26-42.17,22.24-17.34,72.02-39.93,86.1-60.43,8.43-12.28,6.72-20.56,5.43-34.49-5-54.06-26.65-111.67-52.53-159-5.23-9.56-11.66-21.72-18-30.39-.42-.57-1.81-2.72-2.65-2.24-.14.76-.58,1.34-1.16,1.82-43.07,35.63-85.56,72.15-128.58,107.9-3.04,13.49-4.23,27.38-7.76,40.78-4.31,16.38-11.77,31.94-17.12,47.87,2.73,14.07,5.53,28.9,11.36,42.06,6.89,15.57,20.04,30.72,14.51,49.44-2.33,7.89-12,13.84-20.14,11.79-13.79-3.47-22.31-23.96-26.03-36.21-1.06-3.49-1.44-8.07-2.57-11.3-.31-.9-.59-1.58-1.43-.63-11.01,24.9-22.39,49.63-34.06,74.21-17.4,36.65-53.42,92.12-17.5,128.85,23.58,24.12,66.53,48.94,99.03,57.91,49.96,13.78,83.55-47.11,102.26-84.02,8.78-17.32,15.44-35.54,23.41-53.23,9.6-21.33,20.08-42.38,30.52-63.3-1.09-1.29-2.35.61-2.97,1h0ZM567.49,725.91c3.89-10.98,8.64-22.09,11.58-33.38,2.4-9.22,3.56-18.73,5.33-28.07l-10.7,11.75c-3.18,5.07-9.51,9.47-9.28,15.93l3.08,33.78h-.01ZM582.15,796.63c-16.77-34.24-17.94-61.7-21.24-98.84-.06-.63,0-1.94-.89-1.89-5.61,11.15-11.18,23.81-12.04,36.45-.19,2.79,1.18,7.99-.88,9.9-1.07.99-2.9.76-2.67,3.28,1.5,24.86,2.81,53.11,13.06,76.1,4.22,9.46,14.95,26.84,27.26,19.57,16.66-9.84,3.31-32.52-2.6-44.57h0ZM798.57,770.44c-1.43-.54-1.09.16-1.55.63-2.02,2.04-3.71,4.53-5.78,6.58-27.24,27-66.04,39.52-94.18,66.35-7.51,7.16-20.02,19.96-9.32,29.99,7.9,7.4,22.87,1.01,31.28-2.94,27.19-12.79,55.28-38.18,73.01-62.33,1.25-1.7,5-6.28,5.48-7.82.56-1.78-.68-2.66-.72-4.41-.06-2.5.89-5.7,1.04-8.35.33-5.86.41-11.82.74-17.69h0Z"/>
  <path class="cls-1" d="M400.57,744.95c-16.54,16.53-55.52,33.04-59.51,57.04-1.41,8.49,1.31,17.72,9.68,21.37,15.93,6.94,35.8-7.88,48.07-16.85l-4.15,74.28c-.32,34.17.35,70.78-22.07,98.94-10.44,13.11-17.17,15.84-33.1,19.72-30.91,7.53-69.14,8.07-100.52,2.67-61.86-10.65-58.16-105.52-52.38-152.11,3.99-32.14,2.94-64.91,5.53-97.16.07-.86-.23-1.5-.4-2.28,1.52-.2,1.02.4,1.37.97,4.28,7.02,7.62,14.57,12.23,21.46,8.89,13.3,23.8,34.73,41.99,22.59,20.74-13.84,5.62-50.49-2.51-68.15-14.58-31.66-36.91-55.37-43.12-91.1-1.62-9.31-3.33-31.71,1.52-39.53,1.5-2.42,11.4-10.95,14.24-13.51,25.25-22.83,54.61-44.14,83.11-62.75,19.46-12.71,39.49-24.45,59.84-35.68l70.72,138.81c-5.53,18.68-13.93,37.12-18.66,56.02-5.13,20.47-5.42,41.9-9.05,62.6-1.06.78-1.92,1.73-2.83,2.65h0Z"/>
  <path class="cls-1" d="M463.38,559.01c-1.53.14-1-.33-1.33-.99-3.28-6.64-5.7-15.02-8.81-22-16.15-36.18-37.64-70.58-63.1-100.83-.45-1.58,3.87-9.47,4.99-11.28,4.47-7.26,12.45-10.73,14.52-19.75,2.81-12.22-5.48-28.06-19.4-19.41-9.88,6.14-24.19,24.16-30.35,34.19-1.19,1.94-3.01,6.95-4.09,8.02-1.71,1.71-16.3,8.02-19.88,10.04-37.27,21.06-76,51.04-108.94,78.47-10.08,8.4-19.93,17.13-29.56,26.01l1.13-64.94c12.26-101.85,92.02-192.27,199.36-190.61,44.77.69,78.25,9.67,95.98,53.94,22.47,56.09,9.42,128.02-13.07,182.19-5.23,12.61-11.6,24.64-17.45,36.95h0Z"/>
  <path class="cls-1" d="M407.43,464.15c35.01,49.34,70.71,124,69.94,185.51-.44,35.3-7.35,75.6-32.33,102.05l4.9-10.67c14.25-38.4,3-80.23-13.44-115.86l-73.65-145.32c-1.42-.4-6.96,2.81-8.64,3.69-46.32,24.32-99.24,60.85-138.21,95.69-14.97,13.38-29.54,27.69-41.69,43.68-.89.06-.84-1.26-.89-1.88-3.21-36.02,16.74-68.37,42.51-91,37.42-32.87,83.92-68.37,127.47-92.42,2.96-1.63,13.86-6.21,15.37-7.68,1.3-1.27,4.47-8.9,6.03-11.44,4.69-7.65,20.77-26.78,28.34-30.86,10.2-5.49,14.6,7.25,12.77,15.42s-9.55,11.62-13.67,17.9c-2.86,4.37-4.75,9.79-6.84,14.57,8,9.05,15.07,18.79,22.04,28.62h0Z"/>
  <path class="cls-1" d="M197.27,603.61c-2.9,16.75-.4,33.93,4.61,49.97,8.27,26.45,25.81,47.45,37.69,72.21,7.45,15.53,22.59,49.54,8.41,64.03-15.66,16-31.16-6.78-39.19-18.83-27.65-41.46-38.65-93.17-35.77-142.71.36-1.82,2.35-1.32,3.56-2.32,4.85-4,11.7-14.31,16.87-19.51.92-.92,2.48-3.09,3.84-2.84h-.02,0Z"/>
  <path class="cls-1" d="M360.79,779.68c7.63-6.66,16.97-11.6,25.12-17.71,23.75-17.84,44.66-39.17,66.47-59.23-.16,12.93-1.75,26.02-6.72,38.05-1.09,2.65-6.42,11.52-6.29,13.03.1,1.18,1.49,2.32,1.2,3.24-15.78,18.2-32.53,38.64-52.46,52.42-9.85,6.81-35.33,20.52-42.12,3.72-5.25-12.97,5.71-25.6,14.8-33.53h0Z"/>
  <path class="cls-1" d="M745.77,859.79c.63-.39,1.89-2.29,2.97-1-10.44,20.92-20.92,41.97-30.52,63.3-7.97,17.7-14.63,35.92-23.41,53.23-18.71,36.91-52.3,97.8-102.26,84.02-32.51-8.97-75.45-33.79-99.03-57.91-35.92-36.73.1-92.2,17.5-128.85,11.68-24.59,23.06-49.32,34.06-74.21.84-.95,1.12-.27,1.43.63,1.13,3.22,1.51,7.81,2.57,11.3,3.72,12.25,12.25,32.74,26.03,36.21,8.14,2.05,17.81-3.9,20.14-11.79,5.52-18.72-7.62-33.88-14.51-49.44-5.83-13.17-8.63-27.99-11.36-42.06,5.35-15.94,12.81-31.49,17.12-47.87,3.53-13.4,4.72-27.29,7.76-40.78,43.02-35.75,85.51-72.27,128.58-107.9.58-.48,1.02-1.06,1.16-1.82.84-.48,2.23,1.67,2.65,2.24,6.34,8.67,12.77,20.83,18,30.39,25.89,47.33,47.54,104.94,52.53,159,1.29,13.94,3,22.21-5.43,34.49-14.08,20.5-63.86,43.1-86.1,60.43-11.5,8.97-32.96,26.1-23.26,42.17,12.52,20.74,49.79-5.25,63.38-13.79h0Z"/>
  <path class="cls-1" d="M832.55,690.25c-1.2.92-1.03-.45-1.22-1.05-2.45-7.72-4.12-17.03-6.41-25.07-13.93-48.77-32.05-105-57.04-149.06-2.38-4.19-10.95-15.86-11.96-18.95-.46-1.41.16-12.25-.13-15.55-.76-8.7-6.72-35.22-12.39-41.21-10.14-10.71-23.62,2.53-24.62,13.79-.72,8.12,3.81,14.66,4.15,22.67.12,2.83.1,10.85-1.38,12.76-1,1.29-8.89,4.63-11.03,5.84-40.91,23.16-77.53,53.17-109.94,87.1-.66-13.95-1.61-27.87-.93-41.87,3.11-63.92,22.88-138.03,72.69-181.5,39.36-34.35,75.27-27.73,118.39-3.73,92.4,51.43,119.28,171,78,264.65l-36.19,71.17h0Z"/>
  <path class="cls-1" d="M800.78,795.94c9.8-91.28-26.09-181.52-74.55-256.69l-1.67.26c-33.15,28.16-66.19,56.4-99.48,84.4-14.12,11.88-28.57,22.02-41.62,35.32-20.36,20.75-39.25,47.95-39.33,78.19-1.37-1.44-1.9-4.66-2.28-6.6-8.51-43.74,18.71-95.69,45.91-128.46,37.56-45.25,85.45-84.05,137.63-111.09,1.28-1.65,1.67-14,1.48-16.81-.56-8.37-5.37-13.78-3.68-22.63,1.73-9.08,12.61-18.55,18.9-7.37,5.97,10.6,9.97,32.99,10.27,45.2.06,2.6-1.06,5.2-.34,7.8s9.4,14.49,11.51,18.14c21.88,37.82,38.48,86.26,51.27,128.12,11.7,38.29,24.38,77.14,9.85,116.82-4.73,12.9-13.13,26.84-23.88,35.4h.01Z"/>
  <path class="cls-1" d="M798.57,770.44c-.33,5.86-.41,11.82-.74,17.69-.15,2.65-1.1,5.86-1.04,8.35.04,1.75,1.27,2.63.72,4.41-.48,1.54-4.23,6.12-5.48,7.82-17.73,24.15-45.82,49.54-73.01,62.33-8.4,3.95-23.38,10.34-31.28,2.94-10.7-10.03,1.81-22.83,9.32-29.99,28.14-26.83,66.94-39.35,94.18-66.35,2.07-2.05,3.76-4.54,5.78-6.58.47-.47.12-1.18,1.55-.63h0Z"/>
  <path class="cls-1" d="M582.15,796.63c5.9,12.05,19.26,34.73,2.6,44.57-12.31,7.27-23.04-10.11-27.26-19.57-10.25-22.99-11.56-51.23-13.06-76.1-.23-2.52,1.6-2.29,2.67-3.28,2.06-1.91.69-7.11.88-9.9.85-12.64,6.43-25.3,12.04-36.45.89-.06.84,1.26.89,1.89,3.3,37.14,4.46,64.6,21.24,98.84h0Z"/>
</svg>