<?xml version="1.0" encoding="UTF-8"?>
<svg id="Camada_9" data-name="Camada 9" xmlns="http://www.w3.org/2000/svg" viewBox="0 0 1080 1350">
  <defs>
    <style>
      .cls-1 {
        fill: #fff;
      }

      .cls-2 {
        fill: #fd7f00;
      }
    </style>
  </defs>
  <g id="COPO">
    <path class="cls-2" d="M680.44,1030.89c-27.5.75-43.04,16.66-63.6,31.97l-5.57-7.39c.74-4.66,20.24-13.35,15.99-17.65l-23.81,2.76-46.72,33.86c-20.78-10.71,33.74-28.07,26.6-34.31-8.88,1.05-20.44-1.57-28.84.04-8.16,1.56-48.73,36.41-54.37,32.31l-1.32-9.21,33.67-23.13-32.97-4.28-34.9,22.48-6.07-5.51c-.03-2.03,18.97-13.65,22.45-16.67,1.63-1.41,4.37.1,2.95-5.29-6.78,1.59-14.14-4.47-19.69-4.4-7.8.1-13.6,10.03-21.93,9.01l-1.28-7c15.11-5.23,3.87-14.77-5.62-17.49-6.18-1.77-14.64,3.72-16.09-2.34-.57-2.41,1.92-5.94,1.52-8.68-.78-5.24-11.25-16.78-13.18-32.73-5.31-43.79-6.24-94-9.26-138.72-7.49-110.95-11.25-227.43-25.47-337.55-4.99-38.66-23.59-58.58-20.77-106.35.96-16.24,2.75-43.63,18.72-50.65,37.8-16.61,135.36-14.73,179.05-15.18,69.61-.72,141.99,1.88,209.66,21.37,14.44,4.16,51.58,14.03,56.28,29.28,4.5,14.62.74,71.21-1.57,88.86-2.53,19.37-4.94,28.56-15.69,44.43-22.54,166.65-35.64,335.72-68.51,500.29-7.36,12.15-19.96,15.07-28.74,22.13-5.38,4.32-14.59,23.33-23.14,13.71l2.24-7.99ZM802.99,367.31c-1.78-2.61-52.89-17.91-60.1-19.7-99.69-24.61-232.16-20.21-334.11-8.07-11.3,1.35-22.72,3.39-33.54,6.95-2.94,3.96,10.02,12.18,12.69,13.87,56.78,35.94,257.36,33.23,328.45,30.13,19.93-.87,55.41-2.92,73.37-9.87,4.33-1.68,17.63-6.85,13.24-13.31ZM805.29,390.41c-15.42,5.52-29.56,10.04-45.8,13.13-76.87,14.64-302.78,12.11-369.61-26.63-8.18-4.74-14.41-10.66-21.55-16.58-3.31,19.44-4.29,83.29,7.86,97.32,2.63,3.04,22.3,11.89,27.54,14.08,76.41,32.02,214.96,27.11,298.79,22.8,33.1-1.7,65.58-9.16,97.61-16.83,8.61-28.21,4.1-58.23,5.17-87.31ZM441.97,501.71l-50.38-17.9-4.7,2.51,32.3,456.69c17.04-5.54,32.63-15.95,51-19.9l-28.21-421.4ZM786.8,499.08c-2.1-2.12-54.97,10.17-58.52,11.99-2.58,1.33-3.91,2.04-3.94,5.31-2.88,92.97-20.16,184.76-25.38,277.52-2.76,49.12-1.09,98.81-4.78,148.09,1.3,10.46,22.34,13.88,31.38,19.53l61.23-462.43ZM537.1,512.93l-79.89-8.65-3.38,5.19,30.06,412.75h62.42s-9.32-223.05-9.32-223.05l.11-186.24ZM715.12,510.63l-78.62,4.62-7.06,414.79,52.15,13.04,33.53-432.44ZM620.34,929.15l6.6-412.44-4.55-2.72-76.06,1.26,11.59,406.94,62.42,6.97ZM488.53,947.64h57.81v-16.2c-20.19-1.67-39.92,3.1-60.11,2.34l2.3,13.86ZM620.3,938.42l-62.39-6.95c.55,6.97-3.18,16.9,5.76,18.5,15.86,2.84,37.14-.03,53.29,4.03l3.03-3.21.31-12.37ZM474.65,936.09c-9.66-.05-47.92,12.57-46.03,23.99,14,16.25,35.02,21.2,52.95,31.5l-4.63-30.06-28.36,8.91-6.28-5.48c-1.04-4.62,1.76-3.24,4.6-4.49,8.42-3.7,18.54-6.32,27.52-8.42l.22-15.95ZM682.74,970.77l.05-17.35-53.21-12.7c.24,3.89-.86,8.69.37,12.33,2.34,6.97,43.88,13.43,52.79,17.73ZM722.06,968.48l-25.35-10.59-4.38,2.79c-7.27,25.49,36.85,17.58,29.73,7.81ZM548.65,959.2h-60.12l6.91,35.86,101.75,10.39-2.67,8.86c-57.08-4.09-124.41-3.75-169.59-43.55-6,15.43,25.3,33.1,37.29,39.01,53.39,26.28,168.51,21.33,225.15,3.75,13.54-4.2,37.23-12.15,36.98-28.89-11.06,5.5-23.08,9.3-35.07,12.31-10.47,2.63-63.21,14.16-70.06,13.23-6.26-.85-8.46-6.31-1.86-8.85l67.72-12.07-.15-6.75-55.34-16.35c-.32,5.73.4,11.63-.01,17.37-.14,1.95,1.21,7.94-3.44,5.72-7-3.34-6.06-18.77-5.8-25.43l-61.11-4.65c-2.63.39-1.06,15.98-1.33,19.73-.25,3.44,1.79,6.69-3.43,5.72-8.88-5.82-5.3-16.19-5.82-25.41Z"/>
    <path class="cls-1" d="M805.29,390.41c-1.07,29.08,3.44,59.09-5.17,87.31-32.04,7.66-64.51,15.12-97.61,16.83-83.83,4.31-222.37,9.23-298.79-22.8-5.24-2.2-24.91-11.04-27.54-14.08-12.15-14.03-11.17-77.88-7.86-97.32,7.15,5.92,13.37,11.84,21.55,16.58,66.84,38.73,292.74,41.27,369.61,26.63,16.25-3.09,30.39-7.61,45.8-13.13Z"/>
    <polygon class="cls-1" points="537.1 512.93 536.99 699.17 546.32 922.21 483.9 922.22 453.84 509.47 457.22 504.28 537.1 512.93"/>
    <polygon class="cls-1" points="620.34 929.15 557.92 922.19 546.33 515.25 622.39 513.99 626.94 516.71 620.34 929.15"/>
    <polygon class="cls-1" points="715.12 510.63 681.59 943.07 629.44 930.04 636.5 515.25 715.12 510.63"/>
    <path class="cls-1" d="M786.8,499.08l-61.23,462.43c-9.04-5.65-30.08-9.07-31.38-19.53,3.68-49.27,2.02-98.96,4.78-148.09,5.21-92.76,22.5-184.56,25.38-277.52.03-3.27,1.36-3.98,3.94-5.31,3.55-1.82,56.42-14.12,58.52-11.99Z"/>
    <path class="cls-1" d="M441.97,501.71l28.21,421.4c-18.37,3.95-33.96,14.36-51,19.9l-32.3-456.69,4.7-2.51,50.38,17.9Z"/>
    <path class="cls-1" d="M802.99,367.31c4.39,6.46-8.91,11.63-13.24,13.31-17.95,6.95-53.44,9-73.37,9.87-71.1,3.1-271.67,5.81-328.45-30.13-2.67-1.69-15.63-9.91-12.69-13.87,10.82-3.56,22.23-5.6,33.54-6.95,101.95-12.14,234.42-16.55,334.11,8.07,7.21,1.78,58.32,17.08,60.1,19.7Z"/>
    <path class="cls-1" d="M548.65,959.2c.52,9.22-3.07,19.59,5.82,25.41,5.23.97,3.18-2.28,3.43-5.72.27-3.75-1.3-19.34,1.33-19.73l61.11,4.65c-.26,6.66-1.2,22.09,5.8,25.43,4.65,2.22,3.3-3.77,3.44-5.72.41-5.74-.31-11.64.01-17.37l55.34,16.35.15,6.75-67.72,12.07c-6.6,2.55-4.4,8,1.86,8.85,6.85.93,59.59-10.59,70.06-13.23,11.98-3.01,24-6.81,35.07-12.31.25,16.74-23.44,24.69-36.98,28.89-56.64,17.58-171.75,22.54-225.15-3.75-12-5.91-43.29-23.58-37.29-39.01,45.18,39.8,112.5,39.46,169.59,43.55l2.67-8.86-101.75-10.39-6.91-35.86h60.12Z"/>
    <path class="cls-1" d="M474.65,936.09l-.22,15.95c-8.98,2.1-19.1,4.72-27.52,8.42-2.83,1.25-5.64-.13-4.6,4.49l6.28,5.48,28.36-8.91,4.63,30.06c-17.94-10.3-38.95-15.25-52.95-31.5-1.9-11.42,36.36-24.04,46.03-23.99Z"/>
    <path class="cls-1" d="M620.3,938.42l-.31,12.37-3.03,3.21c-16.16-4.06-37.43-1.19-53.29-4.03-8.94-1.6-5.21-11.53-5.76-18.5l62.39,6.95Z"/>
    <path class="cls-1" d="M682.74,970.77c-8.91-4.3-50.45-10.76-52.79-17.73-1.22-3.64-.13-8.44-.37-12.33l53.21,12.7-.05,17.35Z"/>
    <path class="cls-1" d="M488.53,947.64l-2.3-13.86c20.18.76,39.92-4,60.12-2.34v16.2h-57.82Z"/>
    <path class="cls-1" d="M722.06,968.48c7.11,9.77-37,17.69-29.73-7.81l4.38-2.79,25.35,10.59Z"/>
  </g>
</svg>